/* XPM */
static char * charset_xpm[] = {
"100 44 83 1",
" 	c None",
".	c #F7F7F7",
"+	c #F7EFE6",
"@	c #F7EFDE",
"#	c #FFEFDE",
"$	c #FFF7E6",
"%	c #F7F7EF",
"&	c #F7EFD6",
"*	c #FFEFD6",
"=	c #F7F7DE",
"-	c #FFF7DE",
";	c #ADADA5",
">	c #DECEC5",
",	c #94948C",
"'	c #B5ADA5",
")	c #DED6C5",
"!	c #8C8C8C",
"~	c #B5B5AD",
"{	c #B5B5A5",
"]	c #D6CEC5",
"^	c #D6CEBD",
"/	c #ADAD9C",
"(	c #FFFFE6",
"_	c #DEDEC5",
":	c #949494",
"<	c #BDB5AD",
"[	c #D6D6C5",
"}	c #FFFFDE",
"|	c #ADA59C",
"1	c #E6DECE",
"2	c #DED6BD",
"3	c #CECEBD",
"4	c #D6D6BD",
"5	c #F7F7E6",
"6	c #E6E6D6",
"7	c #DEDECE",
"8	c #C5C5B5",
"9	c #CECEC5",
"0	c #EFE6D6",
"a	c #CEC5BD",
"b	c #C5BDB5",
"c	c #EFEFD6",
"d	c #9C9C94",
"e	c #A5A59C",
"f	c #C5C5BD",
"g	c #A5A594",
"h	c #F7E6D6",
"i	c #948C8C",
"j	c #848484",
"k	c #BDBDB5",
"l	c #EFEFDE",
"m	c #C5BDAD",
"n	c #B5ADAD",
"o	c #EFDECE",
"p	c #EFE6CE",
"q	c #EFE6DE",
"r	c #F7E6DE",
"s	c #E6DED6",
"t	c #EFDED6",
"u	c #FFFFEF",
"v	c #9C9494",
"w	c #B5A59C",
"x	c #B5AD9C",
"y	c #DECEBD",
"z	c #A59C94",
"A	c #CEC5B5",
"B	c #ADA594",
"C	c #BDB5A5",
"D	c #BDBDAD",
"E	c #BDB5B5",
"F	c #DED6CE",
"G	c #ADA5A5",
"H	c #DEDED6",
"I	c #FFEFE6",
"J	c #A59C9C",
"K	c #D6C5BD",
"L	c #F7EFEF",
"M	c #AD9C94",
"N	c #CECEB5",
"O	c #C5B5AD",
"P	c #9C948C",
"Q	c #D6CEB5",
"R	c #D6D6CE",
"............+@@@@@@@@@@@@@@###@@@@@@@#@####$##############@@@############@###############@@####@@@@#",
"...........%@&#@#@&&&&&&&&&&&@@@&&@@&@&@#@@@@@@@@@#&@#####@@##@#@##@#@&@@@&##@####@@###@&#&&#@&@@*#&",
"..........%=&@#@@@&&&&#*@@&&&&&&@&&@@@@@@@@&@&@&@@@@@@@@#@@@@@@@@#@@@@@&@@@@@@@@@@@@@@@@&&&&@@@@@@&@",
"...........@@##@#--&@#-#&--*@#--#@---&#--*-#@-&#--@@#-#-@@-@-@@@-@#@-@@#@#-#@---@@--@@--###-#&&--#@#",
"..........+@-;;->,')#'';-!~'#'{']-!''-'';#'--;&],'##)!#'-)^-;&@-!-!-;$-'#'''-!''@)'')-!''-{';--',^-'",
".........%@&/$(;-~(;-{&#@'-'-'(#@-~-@-'@#@'($'@@'-@@-'@'_)&-'@&-:<,-<'('-'@'(~-'-'--'-~-'('--@&-{&-'",
".........@@&~{~<-,')-'@&@'-'-<~^@-,'#-'^'#<{~<@&'-&&-{&<~-@-'&&-~'<-'('<-'&'(,')&'$-'-:,[&[''##-'&-'",
"........%@&&'}$'-~(;-'-^#<('-'(-#-'@#-'(,-'--{&#~(@^(;@'(|--~---'#'-'--'-'-'('&&#/11;-'[2#^-'-@-'@-'",
"........#@@&^@#^^{;-&)')#'')&)''^#^&&@)')#]*#^&^<;-)'-&^#-3-'''-^@^#^*#^@4')#^&&&-;~[-^&^#)')@@#^@&^",
".......5@&&&&#&&&&&&&&&&@#&@#&&&@&&@&&#&#@@##&##&&&#&###&&&&&#&&@&@&&@&@&&&@&&&&&&@&@@&&&&&@@@@@@&&@",
"......%@@&&&@[66@[66*677@677@@[66#677@677@@[66&677@##@@&@&@&@&@&@@&&&@&&&@&&&&&&&&&@@&&@@@&&@@@@@@&&",
".....%+@&&&@@897@897&733@733@@897*733@733@@897#733@#&@&@&@&@##@@&#&#&&&@@&@@@&&@&@@@&&&&@&&&@@0@@@@@",
"......@&@&&@@837@837&73a@73a@@837@73a@73a=@837&73a=#@&@&&&#@&&&#&&#&&&&&&@#&&&&&@&@&@&&&@@@@@&&&@@@@",
"....%+@#&&&&@b87@b87&[88-[88=@b87@[88=[88=@b87@[88=&@@@@@@@@##&&&&&&&&@@&@@&@@&&&&&&&&&@@&&@&@@0c@@@",
"....%&&&&&&&=dea=dea&feg@feg@=dea@feg@feg@=dea&feg@@&@&@@@@@@&#&&&&@&&&&@&&@&@@@@@@@@&&@@&@&&h@h@@@@",
"....@&&&&@&&cij~&ij~@kjj0kjj0cij~@kjjckjj0&ij~@kjj0&&&@@@@@@@@@&&&&&@@@&&&&@@@@@@@@&&&0@&h&@&@@&@&&@",
"...5@&@@@&@&@0@c&0@c&ccc&ccc&@0@l@ccc&ccc@@0@c&c&c&&&&&&@@@@@&@&&&@&&&&@@@&@@@@@@@&&&&0@c&@@&@&&@@@@",
"..%@&&&&&@&@&&&&00&&@&&&00&h&@c&&@@&&&&@&&&@@&&&&&&&&&&@@@@@@&&&&@&@&@@@@&@@@@@@@@@&@@@@@@@@@@@@&@@@",
".%@@@@@&@&@&@&&&&&&&&@@@@@@&@@@@@@&&&&@&@@@@@@&@&@&@@&@@@@@@&@@&@@&@&@&@@@@@@@@@@@&@@@@@@@@@&@@&&&@@",
".%@@&&&&@&&@&&&&&&&&&@@@@@@@@@&&&&@@@@@&@&@@&&@&@&&@&&&@@@@@@&@@@@@&&@&@@@&@@@@@&@@@@&&@@@@@&@&@@@&@",
".@&@&&@&&&&&&&&&&@&&@@@@@@@@@&&@&@@&&@@@@@@@&@@@@@@&@@&&@@#@@@@&&&@@@@&@@@@@&&@@@@@&&@@@@@@@@&&@@@&&",
".@&@@@&@&&&&&&h&&&&&&@&@@@@@@&@@@&&@@&@&&@@@@&@@&@@@&&@@&#&@#&&##@@&&@&@@@@@@&@@@&@@@@@@@@@@@@&@&&@&",
".@&&&&&&&&&&&&&&&&&&&@@@&@@@@&&@&&&@&@@@&&@@@&@@@@&677@@[66&677@677@@[66@677@677@=[66@677@@@&@@&@&&&",
".@&&&&&@&&&&&&&&@&&@&&&@@@&@@&&&&@@&@@&&&@&&&@&@@@@733@@897#733@733@@897@733@733@@897&733@@@@&&@&&&@",
".@&&&&&&&&&&@&&&&@&&&&&@@@@&&@@&@@@@@&@@@&@@&@@&&@&73a=@837&73a=73a=@837@)3a=73a=@837@73a@@&&@&@@&@@",
".@&&&&&&&&&&&&&&&&&&@&&&&@@&&@@@@@@@@@@@@@@@@&&@&&@[88=@b87&[88=[88=@b87@[88=[88=lb87@[88=@@&@@&@@@@",
".@@&&&&&&&&&&&&&&&&@&&&@&&&@&@@@@@@@@@@@@@@@&&@&@@@feg@=dea@feg@feg@=dea@feg@feg@=dea@feg@&&@&@@&&@@",
".@&@&&&&&&&&&&&&&&&&&&&&@&&@&@@@@@@@@@@@@@@@@&&@@&@kjj0cij~@kjj0kjjccij~@kjjckjj0@ij~@kjj0@&&@&@@&@@",
".@@&&&&&&&&&@&&&@&&&@&&&&&&&@@@@@@@@@@@@@@@@@@@&@&@c@c@@0@&&ccc@c@&@@c@@@l@c@c&c@@0@@@c&c@&&@&@&&@@@",
".@&&&&@&&&@&h#&&&&&&&&*&&&&&&@@@@@@@@@@@@@@@@@@@&@@@&&&&&@&@@@@@@&@@@&@&@@@&@@@@@@@@@@@@@@@@@&&&&&@@",
".@&@&&&@@&h&&&&&&&&&&&&&&&&&&&@@@@&@@@@@@@@@@@@@@@&@@@&&@@@@@@@@@@@@@@@@&&&@@@@@@@@@@&@@@@@@&&&@@@@@",
".@@@&&0m_@&&&@&&&&&&&&&&&&&&&@@@@@@@@@@@@@@@@@@@@@@@@@@@@&&&@@@@@@@@@@@@&@&&&@@@@@@@@@@@@@@@@&@&@@@@",
"%@&@&h#'{1@&&&&&&&&&&&&&&&&@&@@@@@@@@@@@@@@@@@@@@@&@&@&@@&&&@@@@@@@@@@@&@&&&&@@@@@@@@@@@@@@@@&&@&&@@",
".l@&&@@)n1&&&&h&&&&&&&&&h&&&&@@@@@@@@&@@@@@@@@@@@@&&&&&&&&&&@@@@@@@@@@@@&@&@&@&@@@@@@@@@@@&@&&&&&@@@",
".@@&@@@)]0&&@0&&&&o&&&p&@@h@&&q@h&@0@&@0@&@r@@&@s@&@1@&&0@@&@@@#=7@&&t@&&@1@@@s@@&s@@@@s&&ll0@@0@0&l",
".@&&&@$[u^&@0vw@&x|#&^'y&lzAh-xB#@|z1@0C8@-C<@@mD$&)mA&=d'-#'z@&AC^@$<<=@'x1&^<3&@B'@@<D$h739@@3[7@7",
".@@&@@@^D&&@0Ex@-|f-hA1Dh0bm&$a|@@'])@1sb@$aB$@mF$&]l~@@G<$-k<@hbH]&$a'$@e]70aqDc0Ab@@<9l&)33=@837@)",
".@@@@&@@(^&@0ag@=|b@0A7mh0b<@IbJ#@/)F01sA@$a'-@<9$&]0~@@~k$@~~r@^sa@=f'=@J3F&al<@@b<@@<90l[3f=l837@[",
"%@&-0@@FA)&&c|z@@|;$hK{30qeb@-//#@'Bs@0D3@+<'@@b{$h1<a@$g<$@|/@@3~F&$|b=h~|6@)xah&|C@@E'+@[<{@={~[@[",
".@-m^y@@-)@&&@#&@#@0h&@@&@q@0@=@&&@-@@@-@@@$-&@@$@&@$@&&$@&h$$@@@$@@@$-@@@$&&@$@@&$@&&@$@0D,,cl!ik@D",
".@-A)^@^[^@&&&@@&&&&&&0&&&&&&&&h&&&&&@@@@@@@&&@@@@@@@h@&@@&@@@@&@r@@@@&@@@&&&@@0@&@@&&&hc&7~~l@D~[&_",
".@@s@s=lu0@&&@@&@@@h&h&&&&&&&h@h&&@h&@@@@@@@@&@@@&@@@0h@@@@&@@@@@@0@@q@@&@000@@0&@@0@@@0@&@@l&h01@@0",
"L@$AAa$^[A&&&^A&@^x-01B@&cAoh&M)0&A<@&@y^@@N<&@yb-@OFm$=zC$$A^[&'aA@)[P-@z<0@m[^@0Cb=@b^{@AaA@3Aa^@A",
".@@110=^A1&&h1<&0@m@h0D#&@B1&&0a&&<z-&@A0&@A<@@7m$@][]u-x]$@^80c~0A@$D|=@'+)&))b@$nQ@@^]mlR1'=169^@b"};
