/* XPM */
static char * arrow_xpm[] = {
"19 29 404 2",
"  	c #B3715B",
". 	c #C26C5D",
"+ 	c #D5645E",
"@ 	c #E75B5E",
"# 	c #F0555D",
"$ 	c #F1545D",
"% 	c #ED565D",
"& 	c #EA595E",
"* 	c #EF535E",
"= 	c #EE545E",
"- 	c #EA545D",
"; 	c #E4555B",
"> 	c #DE565A",
", 	c #D85658",
"' 	c #D35556",
") 	c #D15555",
"! 	c #C06A6D",
"~ 	c #B99587",
"{ 	c #B7AF98",
"] 	c #BB6E5C",
"^ 	c #C86A5E",
"/ 	c #DE6461",
"( 	c #EE5D62",
"_ 	c #F75761",
": 	c #F85661",
"< 	c #F35860",
"[ 	c #F05B61",
"} 	c #F45762",
"| 	c #F35762",
"1 	c #F15761",
"2 	c #ED5760",
"3 	c #E9585F",
"4 	c #E5585E",
"5 	c #E3585D",
"6 	c #E0585C",
"7 	c #D4606B",
"8 	c #C17E78",
"9 	c #BA9384",
"0 	c #C86C5F",
"a 	c #D66962",
"b 	c #E96465",
"c 	c #F85E66",
"d 	c #FF5965",
"e 	c #FE5864",
"f 	c #FA5A64",
"g 	c #F75C64",
"h 	c #FC5C68",
"i 	c #F95C67",
"j 	c #F85C67",
"k 	c #F75B66",
"l 	c #F65C66",
"m 	c #EC606D",
"n 	c #CB726E",
"o 	c #BE8073",
"p 	c #DA6B64",
"q 	c #E36765",
"r 	c #F26367",
"s 	c #FE5C67",
"t 	c #FF5966",
"u 	c #FF5865",
"v 	c #FC5C66",
"w 	c #FF5F6C",
"x 	c #FF5E6B",
"y 	c #FF5D6B",
"z 	c #FF5C6A",
"A 	c #FF5B69",
"B 	c #FF5A69",
"C 	c #FF5969",
"D 	c #EE5E67",
"E 	c #CA6D65",
"F 	c #B77664",
"G 	c #E96767",
"H 	c #EF6467",
"I 	c #FF5462",
"J 	c #FF5563",
"K 	c #FF5C67",
"L 	c #FF5A68",
"M 	c #FF5967",
"N 	c #FE5665",
"O 	c #FF5464",
"P 	c #FF5364",
"Q 	c #FF5264",
"R 	c #EC5961",
"S 	c #CE6D64",
"T 	c #B87461",
"U 	c #F36468",
"V 	c #F66167",
"W 	c #FC5461",
"X 	c #FE5260",
"Y 	c #FF5361",
"Z 	c #FC5765",
"` 	c #FC5664",
" .	c #FA5462",
"..	c #F95160",
"+.	c #FA4F5F",
"@.	c #FB4F5F",
"#.	c #FC5060",
"$.	c #F65461",
"%.	c #DA6A66",
"&.	c #C67365",
"*.	c #F45D64",
"=.	c #FC5863",
"-.	c #FE5461",
";.	c #FD5360",
">.	c #FE5A65",
",.	c #FF5D68",
"'.	c #FE5967",
").	c #FD5866",
"!.	c #FB5664",
"~.	c #FA5563",
"{.	c #F95462",
"].	c #FD5262",
"^.	c #DB6160",
"/.	c #CA6C62",
"(.	c #F45961",
"_.	c #FB5762",
":.	c #FD5763",
"<.	c #FD5B66",
"[.	c #FF5F69",
"}.	c #FF5F6D",
"|.	c #FF5E6C",
"1.	c #FF5D6A",
"2.	c #FE5C69",
"3.	c #FD5D69",
"4.	c #FD606B",
"5.	c #FE616C",
"6.	c #FE626D",
"7.	c #FF5C6E",
"8.	c #DB6364",
"9.	c #CD7068",
"0.	c #E06867",
"a.	c #E56566",
"b.	c #EF5E65",
"c.	c #FF5E6E",
"d.	c #FF5C6D",
"e.	c #FF5B6C",
"f.	c #FF5A6B",
"g.	c #FF596A",
"h.	c #FF586A",
"i.	c #F15E66",
"j.	c #D56C66",
"k.	c #E56768",
"l.	c #EA6367",
"m.	c #F45E67",
"n.	c #FD5B68",
"o.	c #FA5865",
"p.	c #FE5969",
"q.	c #FD5868",
"r.	c #FD5667",
"s.	c #FC5566",
"t.	c #FC5465",
"u.	c #FE5365",
"v.	c #F05F66",
"w.	c #D46D66",
"x.	c #EE666A",
"y.	c #F26168",
"z.	c #F55964",
"A.	c #FD5161",
"B.	c #FE5262",
"C.	c #FC5463",
"D.	c #FB5563",
"E.	c #FB5666",
"F.	c #FA5565",
"G.	c #FA5364",
"H.	c #F95263",
"I.	c #FA5263",
"J.	c #FB5364",
"K.	c #F85361",
"L.	c #E95C62",
"M.	c #CD6B62",
"N.	c #F66069",
"O.	c #F65A65",
"P.	c #F4525F",
"Q.	c #F44959",
"R.	c #F64758",
"S.	c #FA4B5C",
"T.	c #FF5767",
"U.	c #FD5B6A",
"V.	c #FF5A6A",
"W.	c #FE5768",
"X.	c #FF5768",
"Y.	c #F55360",
"Z.	c #EA5F64",
"`.	c #F3535F",
" +	c #F5505E",
".+	c #F34D5B",
"++	c #F34858",
"@+	c #F44858",
"#+	c #F84C5C",
"$+	c #FF5F6E",
"%+	c #FF5E6D",
"&+	c #FF5C6C",
"*+	c #EE6167",
"=+	c #D27067",
"-+	c #EC4453",
";+	c #F14958",
">+	c #F74F5E",
",+	c #FB5060",
"'+	c #FC5161",
")+	c #FF5565",
"!+	c #FF5868",
"~+	c #FF5D6C",
"{+	c #FF5D6D",
"]+	c #FF5D6E",
"^+	c #EE5D64",
"/+	c #D16C64",
"(+	c #EC4050",
"_+	c #FD5C6B",
":+	c #FE5C6B",
"<+	c #FF5B6B",
"[+	c #D16660",
"}+	c #F14253",
"|+	c #F74C5C",
"1+	c #FF5968",
"2+	c #FC5B6A",
"3+	c #FF5667",
"4+	c #F25B64",
"5+	c #D66964",
"6+	c #F95766",
"7+	c #FA5968",
"8+	c #FF616F",
"9+	c #FE5D6C",
"0+	c #FF586F",
"a+	c #FF5E75",
"b+	c #FF5F72",
"c+	c #FC5E6D",
"d+	c #FB5F6A",
"e+	c #F85D65",
"f+	c #F55A60",
"g+	c #FB5E65",
"h+	c #F8606C",
"i+	c #E76267",
"j+	c #D26965",
"k+	c #FB5D6B",
"l+	c #FF6271",
"m+	c #FF606F",
"n+	c #F85A68",
"o+	c #F95266",
"p+	c #FF5C70",
"q+	c #FF5E6F",
"r+	c #FF5B65",
"s+	c #EF5964",
"t+	c #EA6369",
"u+	c #DA6E6B",
"v+	c #FC6671",
"w+	c #FE6470",
"x+	c #FD5F6D",
"y+	c #F85E6A",
"z+	c #FC5A69",
"A+	c #FF5363",
"B+	c #F45768",
"C+	c #E15963",
"D+	c #DC7070",
"E+	c #FF6F78",
"F+	c #FE5667",
"G+	c #FD616E",
"H+	c #FD6772",
"I+	c #FF646C",
"J+	c #FF5666",
"K+	c #FF5366",
"L+	c #FB4E61",
"M+	c #F94E60",
"N+	c #ED5065",
"O+	c #CE5B62",
"P+	c #D27A78",
"Q+	c #FF7980",
"R+	c #FC6A74",
"S+	c #F95D6A",
"T+	c #FB5F6C",
"U+	c #FF6A75",
"V+	c #FF656C",
"W+	c #FC5861",
"X+	c #FC525F",
"Y+	c #FF5669",
"Z+	c #FD5467",
"`+	c #EF5062",
" @	c #EA5767",
".@	c #EE6473",
"+@	c #E16277",
"@@	c #C88687",
"#@	c #CCA69D",
"$@	c #FF7A81",
"%@	c #FE6672",
"&@	c #FF6371",
"*@	c #FD636F",
"=@	c #FF626A",
"-@	c #FF5367",
";@	c #FF566D",
">@	c #F15268",
",@	c #DA5566",
"'@	c #D46E79",
")@	c #DB8B8E",
"!@	c #DF99A4",
"~@	c #C3B6AE",
"{@	c #BFCCBB",
"]@	c #FB7077",
"^@	c #FD7078",
"/@	c #FF6D77",
"(@	c #FF6773",
"_@	c #FF6572",
":@	c #FF6573",
"<@	c #FF616B",
"[@	c #FF5269",
"}@	c #FF526E",
"|@	c #EB556E",
"1@	c #D26C7A",
"2@	c #CA9396",
"3@	c #C7B0AA",
"4@	c #D2BDC2",
"5@	c #BFBFBD",
"6@	c #AFCBBF",
"7@	c #F0636B",
"8@	c #FA6D75",
"9@	c #FD6D76",
"0@	c #F7646E",
"a@	c #FC6470",
"b@	c #FF6B78",
"c@	c #FF6675",
"d@	c #FD5063",
"e@	c #FF4965",
"f@	c #FC4A6A",
"g@	c #EB5D77",
"h@	c #DB8794",
"i@	c #CDB5B1",
"j@	c #BECCBF",
"k@	c #C1C2C6",
"l@	c #CCC1C9",
"m@	c #B8C8C7",
"n@	c #F0505C",
"o@	c #F75A65",
"p@	c #FD636D",
"q@	c #FF6571",
"r@	c #FF6672",
"s@	c #FF6574",
"t@	c #FF6071",
"u@	c #FF5160",
"v@	c #FF4556",
"w@	c #FF4C5D",
"x@	c #F76E78",
"y@	c #DF9FA0",
"z@	c #CCBDC0",
"A@	c #C6C5CD",
"B@	c #C2C2C2",
"C@	c #F23F52",
"D@	c #F94A5B",
"E@	c #FF5766",
"F@	c #FF6673",
"G@	c #FF6775",
"H@	c #FF6674",
"I@	c #F55D6C",
"J@	c #E66069",
"K@	c #DD6A6F",
"L@	c #E08686",
"M@	c #DDAAA6",
"N@	c #CBC4BA",
"O@	c #BCC9C2",
"P@	c #BBC5C6",
"Q@	c #FD314C",
"R@	c #FF3A53",
"S@	c #FF495E",
"T@	c #FF586B",
"U@	c #F9616E",
"V@	c #F4606C",
"W@	c #F2606B",
"X@	c #C16767",
"Y@	c #C38E88",
"Z@	c #C4B0A7",
"`@	c #C6BFB9",
" #	c #C5C5C3",
".#	c #BCC0BF",
"+#	c #BDBBBC",
"@#	c #CEBEC1",
"##	c #F8183A",
"$#	c #F92241",
"%#	c #FC364F",
"&#	c #FE4B60",
"*#	c #FB5968",
"=#	c #F25C68",
"-#	c #EB5E67",
";#	c #EA6169",
">#	c #CB8182",
",#	c #CEABA7",
"'#	c #C4C0BD",
")#	c #BDBEC3",
"!#	c #C6C3CE",
"~#	c #C6C6CE",
"{#	c #BEC2C1",
"]#	c #C2C3BD",
"^#	c #EE0E30",
"/#	c #EE1736",
"(#	c #F12B44",
"_#	c #F44156",
":#	c #F04E5D",
"<#	c #E7515D",
"[#	c #E1545D",
"}#	c #E0575F",
"|#	c #E19798",
"1#	c #DFBCB8",
"2#	c #CCC8C5",
"3#	c #BEBFC4",
"4#	c #C2BFCA",
"5#	c #C1C1C9",
"6#	c #BBBFBE",
"7#	c #C1C2BC",
"  . + @ # $ % & * = - ; > , ' ) ! ~ { ",
"] ^ / ( _ : < [ } | 1 2 3 4 5 6 7 8 9 ",
"0 a b c d e f g h h h i j k k l m n o ",
"p q r s t u d v w x y z A B C C D E F ",
"G H c e I J u K A L M N O P Q Q R S T ",
"U V f W X Y e K Z `  ...+.+.@.#.$.%.&.",
"*.g =.-.;.W >.,.'.).!.~.{.~.!.Z ].^./.",
"(._ _.W -.:.<.[.}.|.1.2.3.4.5.6.7.8.9.",
"0.a.b.h y }.w 4.c.d.e.f.g.g.h.h.B i.j.",
"k.l.m.n.B C M o.p.q.r.s.t.t.t.u.M v.w.",
"x.y.z. .A.B.C.D.E.E.F.G.H.I.I.J.K.L.M.",
"N.O.P.Q.R.S.B.T.U.V.p.q.W.W.X.X.Y.Z.S ",
"`. +.+++@+#+O V.$+$+%+&+&+d.d.d.!.*+=+",
"-+;+>+..,+'+)+!+$+%+%+~+&+{+d.]+ .^+/+",
"(+Q.C.A A M M L _+_+:+U.V.<+&+e.'+2 [+",
"}+|+1+}.w 2.L z 2+2+2+U.U.V.<+<+3+4+5+",
"q.6+7+%+8+9+2+:+0+a+b+c+d+e+f+g+h+i+j+",
"k+9+$+l+l+m+_+n+o+p+q+_+1.,.r+[.s+t+u+",
"v+w+m+]+]+m+x+y+z+w y L B M O A+B+C+D+",
"E+v+2+r.F+p.G+H+I+,.:.J+!+K+L+M+N+O+P+",
"Q+R+S+q.r.6+T+U+V+W+X+Y+Z+`+ @.@+@@@#@",
"$@E+%@&@m+_+k+*@=@:.-@;@>@,@'@)@!@~@{@",
"]@^@/@(@_@:@m+2+<@J+[@}@|@1@2@3@4@5@6@",
"7@8@9@0@a@b@c@p.n.d@e@f@g@h@i@j@k@l@m@",
"n@o@p@q@r@s@t@f.9+u@v@w@x@y@z@A@B@B@B@",
"C@D@E@m+F@G@H@&@I@J@K@L@M@N@O@P@B@B@B@",
"Q@R@S@T@m+U@V@W@X@Y@Z@`@ #.#+#@#B@B@B@",
"##$#%#&#*#=#-#;#>#,#'#)#!#~#{#]#B@B@B@",
"^#/#(#_#:#<#[#}#|#1#2#3#4#5#6#7#B@B@B@"};
