/* XPM */
static char * arrow_xpm[] = {
"19 29 128 2",
"  	c #B93E40",
". 	c #BE453D",
"+ 	c #BD3D3C",
"@ 	c #BC3941",
"# 	c #BA3C48",
"$ 	c #B63E4A",
"% 	c #B43C45",
"& 	c #B93A41",
"* 	c #C33A41",
"= 	c #C23B42",
"- 	c #B04241",
"; 	c #BC3E42",
"> 	c #B7403A",
", 	c #B93D3D",
"' 	c #BA3D43",
") 	c #B84049",
"! 	c #B44349",
"~ 	c #B24143",
"{ 	c #BA3F41",
"] 	c #C03E3E",
"^ 	c #C53840",
"/ 	c #B04340",
"( 	c #B2403F",
"_ 	c #B63E3D",
": 	c #B73F40",
"< 	c #B74042",
"[ 	c #B34043",
"} 	c #AF4140",
"| 	c #B1413D",
"1 	c #B83E39",
"2 	c #BD3C36",
"3 	c #C13E43",
"4 	c #BB363B",
"5 	c #BA4243",
"6 	c #B84042",
"7 	c #B64040",
"8 	c #B43E3E",
"9 	c #B53F3D",
"0 	c #BB403B",
"a 	c #BF3E39",
"b 	c #C13A36",
"c 	c #BE3B41",
"d 	c #B93B3F",
"e 	c #B44E4A",
"f 	c #B93E41",
"g 	c #BA3E40",
"h 	c #BE3E3F",
"i 	c #C33E3F",
"j 	c #C43E3F",
"k 	c #C23C3D",
"l 	c #C03A3B",
"m 	c #B73D4A",
"n 	c #A0645C",
"o 	c #CFAB9B",
"p 	c #B83D40",
"q 	c #B83D3F",
"r 	c #BA3C3D",
"s 	c #C13C3D",
"t 	c #BF383C",
"u 	c #B9363B",
"v 	c #B13C42",
"w 	c #AF4549",
"x 	c #B26F76",
"y 	c #C4BAAE",
"z 	c #C3C7B6",
"A 	c #B63E40",
"B 	c #B53D3E",
"C 	c #BA3E3C",
"D 	c #BD3D3E",
"E 	c #B5383C",
"F 	c #AA4044",
"G 	c #AB5C5F",
"H 	c #B47C7D",
"I 	c #C6BCBD",
"J 	c #C5C4C2",
"K 	c #BDB4B5",
"L 	c #B53F3F",
"M 	c #B9423E",
"N 	c #BC4241",
"O 	c #B34244",
"P 	c #AC575A",
"Q 	c #BB8D8D",
"R 	c #D2C3BE",
"S 	c #BDBCC2",
"T 	c #BFBEC4",
"U 	c #CAB8C4",
"V 	c #B73C3E",
"W 	c #B74239",
"X 	c #B63F3B",
"Y 	c #BC393F",
"Z 	c #B93B47",
"` 	c #B5626C",
" .	c #C0A6A7",
"..	c #C7C7C7",
"+.	c #BCB9C0",
"@.	c #BEBEBE",
"#.	c #AD4248",
"$.	c #AA7271",
"%.	c #C8B3AE",
"&.	c #CCC2C1",
"*.	c #BAB6B7",
"=.	c #B8BDC0",
"-.	c #BB4042",
";.	c #BD4244",
">.	c #AE4B50",
",.	c #BF8989",
"'.	c #C6BFB9",
").	c #B4BDBA",
"!.	c #B6B6B8",
"~.	c #C4C0C1",
"{.	c #BBC1BF",
"].	c #BC4143",
"^.	c #BF4446",
"/.	c #A25B57",
"(.	c #B39289",
"_.	c #BDBAB3",
":.	c #C3BEC2",
"<.	c #C9BDC9",
"[.	c #C0BDC4",
"}.	c #BABCBB",
"|.	c #BDBCB8",
"1.	c #DE9793",
"2.	c #D8B7AE",
"3.	c #C6C3BC",
"4.	c #BCB7BB",
"5.	c #C1B5C1",
"6.	c #BEBBC2",
"7.	c #BBBDBC",
"                                      ",
"                                      ",
"                                      ",
"                                      ",
"                                      ",
"                                      ",
"                                      ",
"                                      ",
"                                      ",
"                                      ",
"                                      ",
"                                      ",
"                                      ",
"                                      ",
"                                      ",
"                                      ",
"                . + @ # $ % & * = - ; ",
"                > , ' ) ! ~ { ] ^ / ( ",
"                _ : < [ } | 1 2 3 4 5 ",
"                6 6 7 8 9 0 a b c d e ",
"                6 f g h i j k l m n o ",
"                p q r s t u v w x y z ",
"                A B C D E F G H I J K ",
"                L 9 M N O P Q R S T U ",
"{   q   { {   V W X Y Z `  ...+.@.@.@.",
"{   q     { {   t = #.$.%.&.*.=.@.@.@.",
"            -.;.v >.,.'.).!.~.{.@.@.@.",
"  { {   q   ].^./.(._.:.<.[.}.|.@.@.@.",
"  { {   q   ].^.1.2.3.4.5.6.7.|.@.@.@."};
