/* XPM */
static char * flipper_on_xpm[] = {
"30 40 797 2",
"  	c #B83E3B",
". 	c #BA3C3D",
"+ 	c #B43D39",
"@ 	c #B43433",
"# 	c #B23531",
"$ 	c #B83A3D",
"% 	c #B63434",
"& 	c #B53333",
"* 	c #B63839",
"= 	c #B7393A",
"- 	c #B63637",
"; 	c #B93B3E",
"> 	c #B53534",
", 	c #B23231",
"' 	c #B83839",
") 	c #B73535",
"! 	c #B43232",
"~ 	c #B83C3E",
"{ 	c #B73F40",
"] 	c #B9333A",
"^ 	c #B73736",
"/ 	c #B6393D",
"( 	c #B83638",
"_ 	c #B83D3F",
": 	c #B73D3C",
"< 	c #B83C3C",
"[ 	c #B83E3D",
"} 	c #B93D3F",
"| 	c #BC423F",
"1 	c #C8706F",
"2 	c #CD7574",
"3 	c #C36160",
"4 	c #CD7D7C",
"5 	c #BE4D4F",
"6 	c #C0595C",
"7 	c #BE4846",
"8 	c #C35A5E",
"9 	c #C56B6A",
"0 	c #D38281",
"a 	c #C35C5D",
"b 	c #C66A6B",
"c 	c #C77172",
"d 	c #BB4140",
"e 	c #BD4A4D",
"f 	c #CF7B7B",
"g 	c #C3595B",
"h 	c #BD514F",
"i 	c #BC4547",
"j 	c #C35755",
"k 	c #BA3E40",
"l 	c #B93B3C",
"m 	c #B93C3A",
"n 	c #B93D3D",
"o 	c #B73F3E",
"p 	c #B53939",
"q 	c #C35352",
"r 	c #DBA9AA",
"s 	c #DBA4A9",
"t 	c #D69998",
"u 	c #D8A2A0",
"v 	c #D79797",
"w 	c #E0ACB0",
"x 	c #DBA5A5",
"y 	c #E5BBBD",
"z 	c #D08D87",
"A 	c #D89C9B",
"B 	c #E2C0BE",
"C 	c #D89899",
"D 	c #C97875",
"E 	c #E0B2B4",
"F 	c #E2BBBC",
"G 	c #C76C69",
"H 	c #BD383D",
"I 	c #D99C9B",
"J 	c #D39796",
"K 	c #D9A6A5",
"L 	c #E8C8C9",
"M 	c #D28484",
"N 	c #D9A3A1",
"O 	c #BA3F41",
"P 	c #B9383C",
"Q 	c #C25453",
"R 	c #E2BFBD",
"S 	c #DCAAAB",
"T 	c #DA9D9C",
"U 	c #D49697",
"V 	c #E3C5C3",
"W 	c #EEE0E0",
"X 	c #E1B8B4",
"Y 	c #E3BCBF",
"Z 	c #DA9E9E",
"` 	c #E2BEBE",
" .	c #D08186",
"..	c #C66B6A",
"+.	c #E5B3B4",
"@.	c #E8D0CE",
"#.	c #C15054",
"$.	c #BD4B4B",
"%.	c #BD4D4B",
"&.	c #DA9A9B",
"*.	c #E8CECF",
"=.	c #E9C5C7",
"-.	c #E5C3C2",
";.	c #B63A3A",
">.	c #C05253",
",.	c #D28C8A",
"'.	c #BB4446",
").	c #C05656",
"!.	c #D9A6A3",
"~.	c #DCAFAC",
"{.	c #D08282",
"].	c #DFB1B1",
"^.	c #CF7A77",
"/.	c #DEADB1",
"(.	c #CE7E7F",
"_.	c #DDAAA9",
":.	c #D89795",
"<.	c #C97575",
"[.	c #CF8481",
"}.	c #CB6B6D",
"|.	c #B73132",
"1.	c #D39393",
"2.	c #DCA5A8",
"3.	c #DCA9A5",
"4.	c #D38B8C",
"5.	c #DAA5AB",
"6.	c #B9363B",
"7.	c #B83636",
"8.	c #BA3538",
"9.	c #B83B39",
"0.	c #B73C3E",
"a.	c #BB4042",
"b.	c #B63935",
"c.	c #B83034",
"d.	c #BA403D",
"e.	c #C04C4D",
"f.	c #B83334",
"g.	c #BB3D40",
"h.	c #BF4447",
"i.	c #B83A3B",
"j.	c #BF484C",
"k.	c #C25654",
"l.	c #BC4549",
"m.	c #BC3E41",
"n.	c #BF4544",
"o.	c #B6353A",
"p.	c #C04D50",
"q.	c #BA3D3B",
"r.	c #BA3435",
"s.	c #BC3E3F",
"t.	c #B83432",
"u.	c #B73130",
"v.	c #B83030",
"w.	c #B83231",
"x.	c #BA2A29",
"y.	c #B92D30",
"z.	c #B7302D",
"A.	c #B72B2C",
"B.	c #B82D30",
"C.	c #BA2F34",
"D.	c #B82E2E",
"E.	c #B72D2D",
"F.	c #B92F2F",
"G.	c #B73233",
"H.	c #B5312F",
"I.	c #B93533",
"J.	c #B53331",
"K.	c #B83233",
"L.	c #B73537",
"M.	c #B73832",
"N.	c #B53335",
"O.	c #B83837",
"P.	c #B73235",
"Q.	c #B73237",
"R.	c #B72B2E",
"S.	c #B92F2D",
"T.	c #B52D2D",
"U.	c #B62C2A",
"V.	c #B92B2A",
"W.	c #B91919",
"X.	c #B61C1C",
"Y.	c #B71D1F",
"Z.	c #B72122",
"`.	c #B82221",
" +	c #BA2426",
".+	c #B82724",
"++	c #B82828",
"@+	c #B82C2B",
"#+	c #B72D2A",
"$+	c #BA2E31",
"%+	c #BB3532",
"&+	c #B93737",
"*+	c #B83634",
"=+	c #B93531",
"-+	c #BA2C2A",
";+	c #B62A29",
">+	c #B82626",
",+	c #B92426",
"'+	c #B82223",
")+	c #B51F1E",
"!+	c #B80407",
"~+	c #B70407",
"{+	c #B60905",
"]+	c #BB0708",
"^+	c #B80B0F",
"/+	c #B90F10",
"(+	c #B71311",
"_+	c #BA1617",
":+	c #BA1C1D",
"<+	c #B6201F",
"[+	c #BA2328",
"}+	c #B9282B",
"|+	c #B72F2F",
"1+	c #B93236",
"2+	c #B6302F",
"3+	c #B82E2C",
"4+	c #BA2527",
"5+	c #B82424",
"6+	c #B62022",
"7+	c #BA1C1B",
"8+	c #B71815",
"9+	c #B81319",
"0+	c #B80000",
"a+	c #BA0003",
"b+	c #BC0001",
"c+	c #B50200",
"d+	c #B80001",
"e+	c #B80103",
"f+	c #B70408",
"g+	c #B90506",
"h+	c #BA0A0D",
"i+	c #B91110",
"j+	c #BA2022",
"k+	c #BB1F22",
"l+	c #BE2527",
"m+	c #B82627",
"n+	c #BB2628",
"o+	c #BA2425",
"p+	c #BA2020",
"q+	c #BB1718",
"r+	c #BB1313",
"s+	c #BB0E10",
"t+	c #B90B0C",
"u+	c #BA070A",
"v+	c #B80808",
"w+	c #BB0501",
"x+	c #B90602",
"y+	c #B80405",
"z+	c #BA0307",
"A+	c #B90101",
"B+	c #B80002",
"C+	c #BA0100",
"D+	c #B90100",
"E+	c #B70100",
"F+	c #BC0000",
"G+	c #B90000",
"H+	c #B30101",
"I+	c #B90002",
"J+	c #B70002",
"K+	c #BB0406",
"L+	c #BC0205",
"M+	c #AF1A1C",
"N+	c #A53438",
"O+	c #AD3F3E",
"P+	c #AA4044",
"Q+	c #AB3D40",
"R+	c #AC3839",
"S+	c #AC3133",
"T+	c #AD2B2D",
"U+	c #AD2527",
"V+	c #AE201F",
"W+	c #AD1B1C",
"X+	c #AE1311",
"Y+	c #AE0F13",
"Z+	c #AF0F11",
"`+	c #B00E0C",
" @	c #B60203",
".@	c #A70101",
"+@	c #A20000",
"@@	c #A00000",
"#@	c #A30001",
"$@	c #A40000",
"%@	c #A90000",
"&@	c #B00002",
"*@	c #B30003",
"=@	c #B60000",
"-@	c #962F32",
";@	c #716269",
">@	c #85898C",
",@	c #ABAAB0",
"'@	c #A9AAAF",
")@	c #A8A9AE",
"!@	c #A9A8AD",
"~@	c #A8A6AB",
"{@	c #A6A4A9",
"]@	c #A8A3A9",
"^@	c #A8A1A8",
"/@	c #A69FA6",
"(@	c #A69DA2",
"_@	c #A59A9E",
":@	c #A5989F",
"<@	c #A3A0A7",
"[@	c #A75154",
"}@	c #9F0102",
"|@	c #950101",
"1@	c #8F0100",
"2@	c #910101",
"3@	c #920001",
"4@	c #920000",
"5@	c #9E0001",
"6@	c #A60000",
"7@	c #AA0001",
"8@	c #B70000",
"9@	c #B50603",
"0@	c #893D41",
"a@	c #627079",
"b@	c #656E7D",
"c@	c #787E8A",
"d@	c #A3AAB0",
"e@	c #B0B5B9",
"f@	c #ADB2B8",
"g@	c #ABB2B8",
"h@	c #AAB3B8",
"i@	c #ABB4BB",
"j@	c #AAB3BA",
"k@	c #AAB3BC",
"l@	c #AEB3B9",
"m@	c #AAB4B6",
"n@	c #ABBCC4",
"o@	c #A3979B",
"p@	c #B20F12",
"q@	c #A40001",
"r@	c #960001",
"s@	c #8E0001",
"t@	c #660000",
"u@	c #6D0003",
"v@	c #7C0808",
"w@	c #870704",
"x@	c #910B0C",
"y@	c #834049",
"z@	c #616E74",
"A@	c #666A73",
"B@	c #656871",
"C@	c #707480",
"D@	c #ABAEB5",
"E@	c #C3C6CD",
"F@	c #BFC2C9",
"G@	c #BEC1C8",
"H@	c #BDC0C7",
"I@	c #BCBFC6",
"J@	c #BDBDC5",
"K@	c #BCBFC4",
"L@	c #BBBEC7",
"M@	c #B8C0C3",
"N@	c #BCBCC4",
"O@	c #B0C1C8",
"P@	c #AF484B",
"Q@	c #AE0001",
"R@	c #9D0200",
"S@	c #950100",
"T@	c #8E0000",
"U@	c #4C0100",
"V@	c #412728",
"W@	c #4C504F",
"X@	c #504B4F",
"Y@	c #595860",
"Z@	c #646D76",
"`@	c #666A75",
" #	c #646371",
".#	c #6D717C",
"+#	c #A1A4AB",
"@#	c #CBCFD8",
"##	c #D1D6DA",
"$#	c #CED3D9",
"%#	c #D0D3DA",
"&#	c #D2D2DA",
"*#	c #D3D1DC",
"=#	c #CFD6DC",
"-#	c #D3D4D9",
";#	c #D1D2D7",
">#	c #D3D6DF",
",#	c #D2E0E9",
"'#	c #BA555B",
")#	c #9D0102",
"!#	c #8C0202",
"~#	c #4E0000",
"{#	c #55383C",
"]#	c #677170",
"^#	c #666B6E",
"/#	c #636E72",
"(#	c #616A71",
"_#	c #646470",
":#	c #737582",
"<#	c #AAADB6",
"[#	c #C4CBD1",
"}#	c #C6C5CD",
"|#	c #C4C4CC",
"1#	c #C5C5CF",
"2#	c #C2C5CA",
"3#	c #C3C6CB",
"4#	c #C4C7CE",
"5#	c #C6C6D0",
"6#	c #C4C7CC",
"7#	c #C4CDD4",
"8#	c #C4D5DC",
"9#	c #C17C81",
"0#	c #B70A06",
"a#	c #B70004",
"b#	c #9C0100",
"c#	c #8A0000",
"d#	c #500000",
"e#	c #54353A",
"f#	c #656972",
"g#	c #646770",
"h#	c #61646D",
"i#	c #7D8087",
"j#	c #B6B9C0",
"k#	c #C7CACF",
"l#	c #C5C6CB",
"m#	c #C2C3C7",
"n#	c #C1C6CA",
"o#	c #C1C3CF",
"p#	c #C5C4CA",
"q#	c #C4C8CB",
"r#	c #C3C2C7",
"s#	c #C4C4CE",
"t#	c #C5C2C9",
"u#	c #C0D1D8",
"v#	c #C2CBD4",
"w#	c #BE6665",
"x#	c #B80606",
"y#	c #BA0204",
"z#	c #B90200",
"A#	c #940001",
"B#	c #4D0200",
"C#	c #593738",
"D#	c #676B76",
"E#	c #62656E",
"F#	c #888B94",
"G#	c #C6C9D0",
"H#	c #C1C5CE",
"I#	c #C3C4C8",
"J#	c #C4C5CA",
"K#	c #C3C3CB",
"L#	c #C5C5CD",
"M#	c #BEC6C8",
"N#	c #C2C2CA",
"O#	c #C5D2DA",
"P#	c #C2B8C0",
"Q#	c #BD464C",
"R#	c #B60003",
"S#	c #B60300",
"T#	c #BB0B0B",
"U#	c #B81216",
"V#	c #B40502",
"W#	c #560001",
"X#	c #543638",
"Y#	c #636975",
"Z#	c #95959D",
"`#	c #C1C2C7",
" $	c #C2C3C8",
".$	c #C3C4C9",
"+$	c #BFC4C8",
"@$	c #C4C5C9",
"#$	c #C3C2CA",
"$$	c #C5C6CA",
"%$	c #C3D2D9",
"&$	c #C0A3A8",
"*$	c #BC2729",
"=$	c #B70E09",
"-$	c #B93131",
";$	c #BB1D1C",
">$	c #B90707",
",$	c #6C0000",
"'$	c #4C3639",
")$	c #656F78",
"!$	c #9FA2A9",
"~$	c #C9C9D1",
"{$	c #C6C7CC",
"]$	c #C1C4C9",
"^$	c #C3C2C8",
"/$	c #C3C4C6",
"($	c #C5C4C9",
"_$	c #C1C6CC",
":$	c #C3D4DC",
"<$	c #BC8A89",
"[$	c #B61211",
"}$	c #B80508",
"|$	c #B6261E",
"1$	c #B93332",
"2$	c #B93E41",
"3$	c #B74044",
"4$	c #BB3F41",
"5$	c #BD3734",
"6$	c #990002",
"7$	c #5F3237",
"8$	c #A5B0B6",
"9$	c #DDDEE3",
"0$	c #D6D7DB",
"a$	c #D3D4D8",
"b$	c #D4D5D9",
"c$	c #D2D3D7",
"d$	c #D3D2D8",
"e$	c #D2D1D7",
"f$	c #D3D2D7",
"g$	c #D2D0D5",
"h$	c #D1D2D6",
"i$	c #D3DCE1",
"j$	c #BB8E93",
"k$	c #B10E11",
"l$	c #BA2123",
"m$	c #B73B3D",
"n$	c #B93F3E",
"o$	c #BB4043",
"p$	c #B63E3D",
"q$	c #B53F3D",
"r$	c #B93E40",
"s$	c #B30707",
"t$	c #86434A",
"u$	c #CCD9DF",
"v$	c #E1E2E4",
"w$	c #DCDDDF",
"x$	c #DEDEE0",
"y$	c #DDDDDF",
"z$	c #DDDEE0",
"A$	c #DEDFE1",
"B$	c #DFDFE1",
"C$	c #DEE2E5",
"D$	c #DDE2E5",
"E$	c #E0DCDD",
"F$	c #BE302E",
"G$	c #B61819",
"H$	c #B84445",
"I$	c #BB3D3E",
"J$	c #BA3C3F",
"K$	c #B53F3B",
"L$	c #B8413D",
"M$	c #B40808",
"N$	c #995459",
"O$	c #C8D3D7",
"P$	c #D3D3D3",
"Q$	c #D0D0D0",
"R$	c #D1D1D1",
"S$	c #D2D2D0",
"T$	c #D1D3D2",
"U$	c #D1DBDA",
"V$	c #CEBEBE",
"W$	c #B70F0E",
"X$	c #B9181D",
"Y$	c #B94143",
"Z$	c #BA3D41",
"`$	c #BC3C3D",
" %	c #B6090D",
".%	c #A06263",
"+%	c #C8D3D5",
"@%	c #CECECE",
"#%	c #CDCDCD",
"$%	c #CECED0",
"%%	c #CDCEC9",
"&%	c #CECCD1",
"*%	c #CFCDCE",
"=%	c #CFD2D7",
"-%	c #C9AFB2",
";%	c #B70F0C",
">%	c #B94142",
",%	c #B73F41",
"'%	c #B63E3F",
")%	c #B53F3F",
"!%	c #BD3A3F",
"~%	c #B30F0D",
"{%	c #B06F75",
"]%	c #CED8DA",
"^%	c #D1D1CF",
"/%	c #CFCFCF",
"(%	c #CFCFD1",
"_%	c #CCD0D1",
":%	c #D0CED1",
"<%	c #CDCFCE",
"[%	c #CDD6D5",
"}%	c #CAAAAD",
"|%	c #B71314",
"1%	c #B81C1F",
"2%	c #B8403F",
"3%	c #BA3E3E",
"4%	c #B84042",
"5%	c #B7393C",
"6%	c #B40F0D",
"7%	c #C08486",
"8%	c #E0F0F0",
"9%	c #E0E6E6",
"0%	c #DEE4E4",
"a%	c #DDE3E3",
"b%	c #DCE0E3",
"c%	c #E0DFE4",
"d%	c #DDDEE2",
"e%	c #E0E9F0",
"f%	c #CEAAAA",
"g%	c #B5100E",
"h%	c #B74141",
"i%	c #B93936",
"j%	c #B70F0F",
"k%	c #AF676A",
"l%	c #C0BFC4",
"m%	c #C7BEC1",
"n%	c #C7C1C3",
"o%	c #C8C4C5",
"p%	c #C7C5C6",
"q%	c #C9C7C8",
"r%	c #CACACA",
"s%	c #CBCBCB",
"t%	c #CCCCCC",
"u%	c #CBCFCE",
"v%	c #CBD1D1",
"w%	c #D1D2D4",
"x%	c #C5CFD1",
"y%	c #A36364",
"z%	c #B70B0B",
"A%	c #B91D1E",
"B%	c #B84143",
"C%	c #BC3C3B",
"D%	c #B92322",
"E%	c #AD2225",
"F%	c #A62829",
"G%	c #AA2A2B",
"H%	c #A7292A",
"I%	c #AA2C2F",
"J%	c #A92D2F",
"K%	c #A82D2F",
"L%	c #AA302F",
"M%	c #A83232",
"N%	c #A93130",
"O%	c #A93132",
"P%	c #A63434",
"Q%	c #9F2D2D",
"R%	c #9A1214",
"S%	c #B81415",
"T%	c #B83D40",
"U%	c #B7413F",
"V%	c #BD363A",
"W%	c #BA3A3B",
"X%	c #B9393A",
"Y%	c #B93739",
"Z%	c #BA3536",
"`%	c #BC3532",
" &	c #B93C40",
".&	c #BA3E3C",
"+&	c #BB3D41",
"@&	c #BA3F44",
"#&	c #B7403C",
"$&	c #B53D3E",
"%&	c #BA3F42",
"&&	c #BD3D3E",
"*&	c #BA403F",
"=&	c #B83D42",
"-&	c #BD3C40",
";&	c #B84041",
">&	c #B44041",
",&	c #B64040",
"'&	c #BA3D43",
")&	c #B93F3C",
"!&	c #BB3E44",
"~&	c #B43F38",
"{&	c #B63A3C",
"]&	c #B93D3B",
"^&	c #B73C3F",
"/&	c #B73C37",
"(&	c #B63F39",
"_&	c #B63C3B",
":&	c #B63B3E",
"<&	c #B53B36",
"[&	c #B63A38",
"}&	c #B43C3B",
"|&	c #B73D3A",
"1&	c #BB464E",
"2&	c #C05658",
"3&	c #BA4649",
"4&	c #BD4648",
"5&	c #BC4849",
"6&	c #BA4848",
"7&	c #BC4348",
"8&	c #BC494C",
"9&	c #BF5853",
"0&	c #BF5255",
"a&	c #BD4A4F",
"b&	c #C35757",
"c&	c #B84447",
"d&	c #BB4B4A",
"e&	c #C05157",
"f&	c #B9504C",
"g&	c #BF585B",
"h&	c #C05857",
"i&	c #BE5051",
"j&	c #B63436",
"k&	c #CF8989",
"l&	c #DEACAB",
"m&	c #DDB4B0",
"n&	c #CC7B7A",
"o&	c #DFAFAF",
"p&	c #DFA9A7",
"q&	c #DEA7AA",
"r&	c #CA7978",
"s&	c #E0B6B8",
"t&	c #D4918B",
"u&	c #D49091",
"v&	c #E2B8B9",
"w&	c #CC8084",
"x&	c #DEAAAC",
"y&	c #DDB0AD",
"z&	c #C25B5E",
"A&	c #CF8586",
"B&	c #D69092",
"C&	c #DBAFB0",
"D&	c #D08488",
"E&	c #E1BABD",
"F&	c #CD7D80",
"G&	c #B83B3F",
"H&	c #B53033",
"I&	c #D49494",
"J&	c #E1B3B3",
"K&	c #E4C0C2",
"L&	c #D79D9C",
"M&	c #BF5859",
"N&	c #CF8F8F",
"O&	c #E9CBC9",
"P&	c #DDADAB",
"Q&	c #E2B9BD",
"R&	c #EBD9D9",
"S&	c #D1898A",
"T&	c #EAC7CB",
"U&	c #CD7776",
"V&	c #D89898",
"W&	c #E9CCD0",
"X&	c #E5BDBD",
"Y&	c #B12524",
"Z&	c #D59595",
"`&	c #CD7B7D",
" *	c #C05754",
".*	c #D89C9C",
"+*	c #E8C6C4",
"@*	c #CF7F82",
"#*	c #EAD5D2",
"$*	c #CD7F7F",
"%*	c #B63339",
"&*	c #B33332",
"**	c #D39394",
"=*	c #CB7A79",
"-*	c #BB4249",
";*	c #DCA4A7",
">*	c #D5918E",
",*	c #E8C8CD",
"'*	c #D18381",
")*	c #E8C5C9",
"!*	c #CC777A",
"~*	c #DBA4A7",
"{*	c #C65D5A",
"]*	c #D89B9A",
"^*	c #CA7676",
"/*	c #DAA9A4",
"(*	c #B73533",
"_*	c #C66668",
":*	c #D9A1A2",
"<*	c #D89896",
"[*	c #CC8082",
"}*	c #C15457",
"|*	c #C46667",
"1*	c #D07E80",
"2*	c #B33536",
"3*	c #C3565B",
"4*	c #BA4647",
"5*	c #B43637",
"6*	c #BA4345",
"7*	c #CD7B7F",
"8*	c #C56364",
"9*	c #BB4247",
"0*	c #C35F5F",
"a*	c #BA4444",
"b*	c #BD4949",
"c*	c #CE7476",
"d*	c #C86C6D",
"e*	c #C45A5A",
"f*	c #C15A5B",
"g*	c #BC3F43",
"h*	c #CE787B",
"i*	c #C15356",
"j*	c #BC4B4D",
"k*	c #BF5351",
"l*	c #B73E43",
"m*	c #B53A3C",
"n*	c #B5373A",
"o*	c #B53738",
"p*	c #B7343A",
"q*	c #B2322F",
"r*	c #BA383A",
"s*	c #B63539",
"t*	c #B63338",
"u*	c #B63B3D",
"v*	c #B93E43",
"  . + @ # $ % & * = - ; * > , ' ) ! ~ { = ! ] ^ / ( ~ _ : < ",
"[ } | 1 2 ~ 3 4 5 5 6 7 8 9 0 a b c d * e f g h i j k l m n ",
"o p q r s t u v w x y z A B C D E F G H I J K L M N O ~ < : ",
"_ P Q R S T U ; V W X Y Z `  ...+.@.#.$.x %.&.*.=.-.} = = ;.",
"o ' >.,.'.).!.~.{.].^./.(._.:.<.[.v }.|.1.2.3.{.4.5.6.( 7.8.",
"6.9.0.a.b.c.d.e.f.g.' h.i.j.k.l.m.k n.f.o.p.. q.r.s.t.u.v.w.",
"x.y.z.A.B.C.D.E.v.F.G.H.I.J.K.) L.M.N.O.r.|.P.Q.K.R.S.T.U.V.",
"W.X.Y.Z.`. +.+++@+#+E.$+w.P.%+( &+*+r.f.=+|.C.z.-+;+>+,+'+)+",
"!+~+{+]+^+/+(+_+:+<+[+}+@+|+1+( ( f.2+3+V.++4+5+6+7+7+8+9+(+",
"0+a+b+0+c+d+e+f+g+h+i+8+j+k+l+m+n+o+p+7+q+r+s+t+u+v+w+x+y+z+",
"A+B+0+C+D+E+F+G+H+I+J+K+L+M+N+O+P+Q+R+S+T+U+V+W+X+Y+Z+`+ @0+",
".@+@@@#@$@%@&@*@=@A+F+b+-@;@>@,@'@)@!@~@{@]@^@/@(@_@:@<@[@0+",
"}@|@1@2@3@4@5@6@7@8@9@0@a@b@c@d@e@f@g@g@h@i@j@k@l@m@l@n@o@p@",
"q@r@4@|@s@t@u@v@w@x@y@z@A@B@C@D@E@F@G@H@H@H@I@J@K@L@M@N@O@P@",
"Q@R@r@S@T@U@V@W@X@Y@Z@`@ #.#+#@###$#%#&#&#&#*#*#=#-#;#>#,#'#",
"G+Q@)#|@!#~#{#]#^#/#(#_#:#<#[#}#|#|#1#E@2#3#4#E@5#6#7#8#9#0#",
"0+a#Q@b#c#d#e#f#B@g#h#i#j#k#l#m#n#o#|#p#q#2#r#s#t#u#v#w#x#0+",
"y#E+z#&@A#B#C#D#E#h#F#H@G#2#l#l#|#H#I#J#K#L#M#N#O#P#Q#R#S#T#",
" +U#V#b+7@W#X#Y#g#Z#K#l#`#J# $.$ $2#+$@$#$ $$$%$&$*$I+=$Y.++",
"k ; -$;$>$,$'$)$!$~${$ $ $ $.$ $]$^$3#/$($_$:$<$[$}$|$1$$ n ",
"{ 2$3$4$5$6$7$8$9$0$a$a$b$a$c$a$d$e$f$g$h$i$j$k$l$m$n$o$p$_ ",
"q$r$g.r$m.s$t$u$v$w$x$y$z$z$A$B$B$B$w$C$D$E$F$G$H$I$_ ~ J$k ",
"n$_ K$L$l M$N$O$P$Q$R$R$R$R$Q$P$P$Q$S$T$U$V$W$X$Y$[ k _ Z$} ",
"r$k n { `$ %.%+%R$@%#%#%@%#%@%@%$%%%&%*%=%-%;%Y.>%,%} } '%n ",
"'%Z$  )%!%~%{%]%^%@%/%(%$%(%$%$%_%@%:%<%[%}%|%1%2%r$} } 3%3%",
"_ g.[ 4%5%6%7%8%9%0%a%D$C$C$b%C$c%b%9$d%e%f%g%Y.h%{ _ n$[ [ ",
"Z$,%_ 2%i%j%k%l%m%m%n%o%p%q%r%s%t%u%v%w%x%y%z%A%B%{ n$n$r$_ ",
"_ _ 2$[ C%D%E%F%G%H%I%J%J%K%L%L%M%N%O%P%Q%R%S%D%{ r$k r$r$k ",
"n$'%Z$T%_ U%[ V%W%X%X%' X%Y%( Y%( L.Z%N.`%J$T%0.[ _  &} } n ",
"T%. .&r$+&2$_ { _ _ '%'%{ _ _ _ n$r$[ @&#&,%k } r$r$_ _ [ n$",
"{ $&[ '%[ r$o 4%2$2$4%4%4%,%%&2$2$ &4$T%&&{ _ _ _ _ _ r$*&n$",
"r$2$< { o =&-&*&r$O ;&{ ;&{ ;&;&{ { >&O n$Z${ 3%_ } k r$2$ &",
"k ,&Z$'&r$)&T%T%g.r${ O 4$,&o o 4$Z$T%L$_ _ o !&k n$%&2$,%o ",
" &3%~&{&]&$&^&/&(&.&_&< :&i.P l <&n #&3%l = .&[&m }&|&q.p$n$",
"3%: 1&2&3&^&#.4&5&B%6&7&8&9&0&a&b&c&{ _&d&e&* f&g&e h&i&O |&",
"^&j&k&l&m&n&o&p&q&r&s&t&u&v&w&v x&y&K.z&r x&A&B&C&D&E&F&r$G&",
"_ H&I&J&K&L&M&N&O&P&Q&R&S&T&U&V&W&X&Y&Z&`& *F .*+*@*#*$*%*k ",
"%&&***=*-*k&A ;*>*,*'*)*!*~*{*]*^*/*(*_*:*<*.*[*}*|*1*2*U%T%",
"{ m$3*4*5*6*7*8*9*0*a*b&b*c*d*e*s.f*g*G._*h*B%i*4*j*k*0.2$!&",
"l*n$m*T%4$; % n*~ o*$ p*[&q*P.j&r*s*^&o ( t*u*5%} $ $ v*n$k "};
