/* XPM */
static char * off60_xpm[] = {
"43 60 217 2",
"  	c #E6E6E6",
". 	c #E7E7E7",
"+ 	c #E5E5E5",
"@ 	c #E8E8E8",
"# 	c #E9E9E9",
"$ 	c #EBEBEB",
"% 	c #EEEEEE",
"& 	c #ECECEC",
"* 	c #EAEAEA",
"= 	c #E4E4E4",
"- 	c #D7D7D7",
"; 	c #C7C7C7",
"> 	c #B0B0B0",
", 	c #A4A4A4",
"' 	c #9B9B9B",
") 	c #ADADAD",
"! 	c #E1E1E1",
"~ 	c #BABABA",
"{ 	c #8D8D8D",
"] 	c #646464",
"^ 	c #3E3E3E",
"/ 	c #2A2A2A",
"( 	c #272727",
"_ 	c #292929",
": 	c #303030",
"< 	c #424242",
"[ 	c #727272",
"} 	c #D1D1D1",
"| 	c #EFEFEF",
"1 	c #A6A6A6",
"2 	c #767676",
"3 	c #4D4D4D",
"4 	c #171717",
"5 	c #080808",
"6 	c #0E0E0E",
"7 	c #151515",
"8 	c #202020",
"9 	c #343434",
"0 	c #2B2B2B",
"a 	c #505050",
"b 	c #B1B1B1",
"c 	c #C4C4C4",
"d 	c #8E8E8E",
"e 	c #414141",
"f 	c #000000",
"g 	c #060606",
"h 	c #050505",
"i 	c #030303",
"j 	c #010101",
"k 	c #070707",
"l 	c #0D0D0D",
"m 	c #1C1C1C",
"n 	c #252525",
"o 	c #9D9D9D",
"p 	c #E0E0E0",
"q 	c #9E9E9E",
"r 	c #565656",
"s 	c #141414",
"t 	c #282828",
"u 	c #242424",
"v 	c #212121",
"w 	c #191919",
"x 	c #0C0C0C",
"y 	c #0B0B0B",
"z 	c #CFCFCF",
"A 	c #BDBDBD",
"B 	c #949494",
"C 	c #7A7A7A",
"D 	c #838383",
"E 	c #6F6F6F",
"F 	c #535353",
"G 	c #3D3D3D",
"H 	c #3A3A3A",
"I 	c #3C3C3C",
"J 	c #1F1F1F",
"K 	c #131313",
"L 	c #020202",
"M 	c #717171",
"N 	c #EDEDED",
"O 	c #E3E3E3",
"P 	c #AEAEAE",
"Q 	c #9A9A9A",
"R 	c #8B8B8B",
"S 	c #808080",
"T 	c #707070",
"U 	c #5D5D5D",
"V 	c #4C4C4C",
"W 	c #494949",
"X 	c #444444",
"Y 	c #393939",
"Z 	c #2D2D2D",
"` 	c #222222",
" .	c #1B1B1B",
"..	c #D0D0D0",
"+.	c #E2E2E2",
"@.	c #B5B5B5",
"#.	c #818181",
"$.	c #484848",
"%.	c #333333",
"&.	c #2E2E2E",
"*.	c #363636",
"=.	c #4B4B4B",
"-.	c #111111",
";.	c #929292",
">.	c #F1F1F1",
",.	c #B8B8B8",
"'.	c #4F4F4F",
").	c #323232",
"!.	c #2C2C2C",
"~.	c #2F2F2F",
"{.	c #313131",
"].	c #383838",
"^.	c #353535",
"/.	c #040404",
"(.	c #787878",
"_.	c #F0F0F0",
":.	c #BEBEBE",
"<.	c #525252",
"[.	c #373737",
"}.	c #232323",
"|.	c #181818",
"1.	c #777777",
"2.	c #C3C3C3",
"3.	c #4E4E4E",
"4.	c #1E1E1E",
"5.	c #262626",
"6.	c #1A1A1A",
"7.	c #0A0A0A",
"8.	c #6D6D6D",
"9.	c #DFDFDF",
"0.	c #ABABAB",
"a.	c #626262",
"b.	c #616161",
"c.	c #474747",
"d.	c #464646",
"e.	c #0F0F0F",
"f.	c #898989",
"g.	c #DADADA",
"h.	c #434343",
"i.	c #161616",
"j.	c #7F7F7F",
"k.	c #5F5F5F",
"l.	c #454545",
"m.	c #090909",
"n.	c #C2C2C2",
"o.	c #595959",
"p.	c #A7A7A7",
"q.	c #121212",
"r.	c #3B3B3B",
"s.	c #101010",
"t.	c #828282",
"u.	c #3F3F3F",
"v.	c #404040",
"w.	c #959595",
"x.	c #F2F2F2",
"y.	c #B7B7B7",
"z.	c #F3F3F3",
"A.	c #BBBBBB",
"B.	c #5B5B5B",
"C.	c #5E5E5E",
"D.	c #9C9C9C",
"E.	c #686868",
"F.	c #606060",
"G.	c #979797",
"H.	c #545454",
"I.	c #8F8F8F",
"J.	c #636363",
"K.	c #A0A0A0",
"L.	c #858585",
"M.	c #747474",
"N.	c #585858",
"O.	c #B2B2B2",
"P.	c #848484",
"Q.	c #757575",
"R.	c #4A4A4A",
"S.	c #8A8A8A",
"T.	c #AAAAAA",
"U.	c #B6B6B6",
"V.	c #7C7C7C",
"W.	c #A2A2A2",
"X.	c #1D1D1D",
"Y.	c #999999",
"Z.	c #969696",
"`.	c #5A5A5A",
" +	c #7E7E7E",
".+	c #A5A5A5",
"++	c #868686",
"@+	c #A9A9A9",
"#+	c #7B7B7B",
"$+	c #8C8C8C",
"%+	c #909090",
"&+	c #6C6C6C",
"*+	c #C5C5C5",
"=+	c #F9F9F9",
"-+	c #A3A3A3",
";+	c #515151",
">+	c #888888",
",+	c #9F9F9F",
"'+	c #C9C9C9",
")+	c #D3D3D3",
"!+	c #5C5C5C",
"~+	c #919191",
"{+	c #DCDCDC",
"]+	c #C8C8C8",
"^+	c #7D7D7D",
"/+	c #DEDEDE",
"(+	c #D5D5D5",
"_+	c #A1A1A1",
":+	c #CDCDCD",
"<+	c #575757",
"[+	c #C6C6C6",
"}+	c #D2D2D2",
"|+	c #F4F4F4",
"1+	c #BCBCBC",
"2+	c #666666",
"3+	c #CACACA",
"4+	c #676767",
"                                                                                      ",
"                                                                                      ",
"                                                                                      ",
"                                                                                      ",
"                                                                                      ",
"                                                                                      ",
"                                                                                      ",
"                                                                                      ",
". +               .         +     @ # $ % % % % & @ +                                 ",
". +                   .   +     * = - ; > , ' ) ;   $     .                         + ",
". +               +         . ! ~ { ] ^ / ( _ : < [ } | . + +                       + ",
". +                       + @ 1 2 3 4 5 5 6 7 8 9 0 a b $ @                         + ",
"@ +             + .     + % c d e f g h i i j k l m n ( o $ .                       + ",
"@ +                 +   . p q r s 8 t ( u v w x h g y l / z &                     = + ",
"@                 . .   $ A B 2 C D E F G H I 9 J K k L h M N @                 + O = ",
"@                       @ P Q R S T U V W X G e Y Z ` l j  ...*                   = . ",
"                      . +.@.#.$.%._ ` &.( Z Z *.=.H &.t -.f ;.>.                  = + ",
"                    .   @ ,.'.%.).!.( ~.&.t {.Z !.%.].^.8 /.(._.                    + ",
"                      . @ :.<.[.}.s 4 s |.J _ !.).0 ( %._ /.1._.                    + ",
"                + .   @ ! 2.3.w h f j i g y K m 4.5._ J : -.[ >.                  + + ",
"                      @ ! b 8 6 6.|. .4.-.7./.y K 6.!.n v v 8.N                   + + ",
"                + .   . 9.0.a.b.=.V c.d.*.: 6.g k 7 v 5.4.e.f._.                  + + ",
"                      * g.> ' 1.b.a I G h.^ / i.k y w 4.8 y j._.                  + . ",
"                + =   @ O ~ k.l.G < a {.Z : ).!.t k K 4. .m.2 _.                  + # ",
"                +     . O n.r c.o.D p.X 4 q./ r.9 4 5 |.w s.t.>.                  + @ ",
"                . +   . + :.u.v.W r.H ^ %.m s.4.[.Z x 7 6.6 w.x.                  + . ",
"                + .   . . y.&.}.: ^ [.u.v.Y t e./ G e.6  .6 w.z.                    + ",
"                . +   . . b [.Y ].: %.{.G Y u._ m W 4 5 |.e.' _.                  +   ",
".               +     . . A.l.u.e h.3.B.r C.E 3.n 0 |.y e.y D.>.                  . + ",
"@                 . + @   n.e Y a.1.E.F.9 : Z 0 k.e 7.5 -.k Q x.                      ",
"@                     . @ A.{.h.j.G.E.H.F r.'.<.^.{.x 7.-.L I.z.                      ",
"@           .         . $ > !.c.J.K.,.L.M.M J.d.&.^./ m.l h I.>.                      ",
". +                   . # 1 v N.c.u.{ O.P.Q.S R.J G d.x l y S.x.        .             ",
". +                     N '  .^ R.#.R T.U.#.V.3./ [.0 n 7.i ;.z..                     ",
". +                     | W.X.m T Y.o , A.Z.k.{.*.Y G I.`.h  +N .                     ",
". +             +     . N .+6 4 a ++Z.I.@+y.#+Z X.X.&.:.- H B.$ . .                   ",
". +                     _.$+i x l.L.B R %+) P S &+E E.*+=+-+;+= #                     ",
". +             +     . * S 7.k !.Q.P.>+d ,+A.B 3.).}.a.'+! .+)+* +       .           ",
". +                   . * Z.5.i -.!+V.P.~+d &+o.Z m./.` { ~ {+]+                      ",
". +                     % ) / 6 x h.1.^+ +H.e a E.G K }.#.@+P O./+.       =           ",
"                        % :._  .s n E.C N.H l.W <.`.F <.P.' 0.@.(+# . + + O           ",
"                . + .   @ + F x 4 i.<.T $.^ ^ h.d.k.K.E F F b._+:+. .         +       ",
"                          % c 3 7 i }.] V H h.I =.{.( Z $.V ~.).F.'+&     .   .       ",
"                  +       + _.! o ^+3 V $.Y ^.8 |.6 L 7 0 / l.Y <+$+$   + . +         ",
"                +   . + .     # _.x.g.8.u.[.o.C.s m.i f f f g w [ I :.%   + .         ",
"                  +   .     +       _.[+H.Z ~+}+J i j f i L f j 7.h  +|+              ",
"                  .   . +           @ # #+*.!.{.y /.j j L j f j i j u.O #   +         ",
"                              .       N 1+d.] )././.f j j f j j L h t } &   .         ",
"                                        @ V.2+X g j f L j j f j g 7.c.= *   .       + ",
"                                    . . & 3+l.J y L L f j j f L 5 h 4+$ . . +       + ",
"                                    + . . % D s.g g /.g h j f /.7._ A.& .     .     + ",
"                                    . +   # /+k.x i y -.7.i f f  .) |   + . .       + ",
"                                  +   .     $ ! #+w h j k i y h., % @   . +         + ",
"                                +   + +   + + * * ~ [ W 3 S ,.p % @     + .         + ",
"                                +   +             | & = . x.| #     +   +   +       + ",
"                                    .     .         . @ @   +       . +             + ",
"                                                                                    + ",
"                                                                                      ",
"                                                                                      ",
".       . .                                                                           "};
