/* XPM */
static char * on60_xpm[] = {
"44 60 219 2",
"  	c #E6E6E6",
". 	c #E7E7E7",
"+ 	c #E5E5E5",
"@ 	c #E8E8E8",
"# 	c #EEEEEE",
"$ 	c #F2F2F2",
"% 	c #F1F1F1",
"& 	c #F3F3F3",
"* 	c #EFEFEF",
"= 	c #E9E9E9",
"- 	c #ECECEC",
"; 	c #BFBFBF",
"> 	c #858585",
", 	c #6D6D6D",
"' 	c #8F8F8F",
") 	c #C6C6C6",
"! 	c #EBEBEB",
"~ 	c #DBDBDB",
"{ 	c #646464",
"] 	c #1A1A1A",
"^ 	c #060606",
"/ 	c #020202",
"( 	c #080808",
"_ 	c #171717",
": 	c #454545",
"< 	c #A1A1A1",
"[ 	c #C9C9C9",
"} 	c #424242",
"| 	c #050505",
"1 	c #0E0E0E",
"2 	c #000000",
"3 	c #070707",
"4 	c #828282",
"5 	c #F4F4F4",
"6 	c #E2E2E2",
"7 	c #4D4D4D",
"8 	c #040404",
"9 	c #0A0A0A",
"0 	c #010101",
"a 	c #111111",
"b 	c #949494",
"c 	c #9C9C9C",
"d 	c #212121",
"e 	c #151515",
"f 	c #272727",
"g 	c #CBCBCB",
"h 	c #EDEDED",
"i 	c #CFCFCF",
"j 	c #5E5E5E",
"k 	c #5B5B5B",
"l 	c #202020",
"m 	c #AEAEAE",
"n 	c #878787",
"o 	c #4C4C4C",
"p 	c #737373",
"q 	c #131313",
"r 	c #090909",
"s 	c #E4E4E4",
"t 	c #CECECE",
"u 	c #303030",
"v 	c #242424",
"w 	c #0F0F0F",
"x 	c #F0F0F0",
"y 	c #969696",
"z 	c #3A3A3A",
"A 	c #3B3B3B",
"B 	c #6C6C6C",
"C 	c #030303",
"D 	c #F5F5F5",
"E 	c #B9B9B9",
"F 	c #4F4F4F",
"G 	c #393939",
"H 	c #3F3F3F",
"I 	c #909090",
"J 	c #363636",
"K 	c #3E3E3E",
"L 	c #4B4B4B",
"M 	c #808080",
"N 	c #494949",
"O 	c #383838",
"P 	c #282828",
"Q 	c #141414",
"R 	c #161616",
"S 	c #252525",
"T 	c #606060",
"U 	c #6E6E6E",
"V 	c #B2B2B2",
"W 	c #EAEAEA",
"X 	c #999999",
"Y 	c #2C2C2C",
"Z 	c #121212",
"` 	c #5F5F5F",
" .	c #3C3C3C",
"..	c #3D3D3D",
"+.	c #373737",
"@.	c #555555",
"#.	c #464646",
"$.	c #797979",
"%.	c #181818",
"&.	c #101010",
"*.	c #262626",
"=.	c #5C5C5C",
"-.	c #404040",
";.	c #838383",
">.	c #474747",
",.	c #ACACAC",
"'.	c #D5D5D5",
").	c #6B6B6B",
"!.	c #1B1B1B",
"~.	c #484848",
"{.	c #565656",
"].	c #696969",
"^.	c #727272",
"/.	c #8D8D8D",
"(.	c #B4B4B4",
"_.	c #C7C7C7",
":.	c #5D5D5D",
"<.	c #1F1F1F",
"[.	c #656565",
"}.	c #7B7B7B",
"|.	c #7F7F7F",
"1.	c #616161",
"2.	c #535353",
"3.	c #A3A3A3",
"4.	c #A9A9A9",
"5.	c #E3E3E3",
"6.	c #D2D2D2",
"7.	c #343434",
"8.	c #757575",
"9.	c #8A8A8A",
"0.	c #6F6F6F",
"a.	c #515151",
"b.	c #1E1E1E",
"c.	c #0C0C0C",
"d.	c #A5A5A5",
"e.	c #C8C8C8",
"f.	c #D4D4D4",
"g.	c #2F2F2F",
"h.	c #545454",
"i.	c #848484",
"j.	c #979797",
"k.	c #ADADAD",
"l.	c #AAAAAA",
"m.	c #505050",
"n.	c #232323",
"o.	c #D8D8D8",
"p.	c #BCBCBC",
"q.	c #D3D3D3",
"r.	c #292929",
"s.	c #919191",
"t.	c #898989",
"u.	c #A7A7A7",
"v.	c #818181",
"w.	c #686868",
"x.	c #DFDFDF",
"y.	c #313131",
"z.	c #707070",
"A.	c #939393",
"B.	c #929292",
"C.	c #BDBDBD",
"D.	c #222222",
"E.	c #F7F7F7",
"F.	c #9A9A9A",
"G.	c #CACACA",
"H.	c #DCDCDC",
"I.	c #0D0D0D",
"J.	c #959595",
"K.	c #B3B3B3",
"L.	c #AFAFAF",
"M.	c #7A7A7A",
"N.	c #333333",
"O.	c #2B2B2B",
"P.	c #767676",
"Q.	c #C2C2C2",
"R.	c #787878",
"S.	c #636363",
"T.	c #2E2E2E",
"U.	c #4A4A4A",
"V.	c #DADADA",
"W.	c #434343",
"X.	c #5A5A5A",
"Y.	c #626262",
"Z.	c #B0B0B0",
"`.	c #9F9F9F",
" +	c #777777",
".+	c #7E7E7E",
"++	c #575757",
"@+	c #A4A4A4",
"#+	c #747474",
"$+	c #2A2A2A",
"%+	c #0B0B0B",
"&+	c #E0E0E0",
"*+	c #585858",
"=+	c #868686",
"-+	c #E1E1E1",
";+	c #676767",
">+	c #595959",
",+	c #D7D7D7",
"'+	c #666666",
")+	c #1D1D1D",
"!+	c #ABABAB",
"~+	c #323232",
"{+	c #BBBBBB",
"]+	c #BEBEBE",
"^+	c #1C1C1C",
"/+	c #D6D6D6",
"(+	c #191919",
"_+	c #525252",
":+	c #CDCDCD",
"<+	c #353535",
"[+	c #C0C0C0",
"}+	c #8E8E8E",
"|+	c #444444",
"1+	c #414141",
"2+	c #6A6A6A",
"3+	c #7C7C7C",
"4+	c #B7B7B7",
"5+	c #9B9B9B",
"6+	c #8B8B8B",
"                                        . +     .       .           +       .           ",
"                                          .       +   . + .       .                     ",
"                                  .     . +         +   +       .     +                 ",
"                                  +     +         +       + +       . + + .             ",
"                                  .   + . +     + @ # $ % & * = + . + . .   +           ",
"                                    .     + +   - - ; > , ' ) ! & @ +   +               ",
"                                    + .     + * ~ { ] ^ / ( _ : < . .     +             ",
"                                          + # [ } | / 1 1 ( 2 2 3 4 5     .             ",
"                            +         + . = 6 7 / ^ 8 9 ( 8 0 2 3 a b # .   .           ",
"                            .     .   @   % c d e ^ / 2 2 0 0 2 ( 8 f g -   +           ",
"                          +             h i j k l 2 2 0 0 / / 0 / ( 1 m $ + .       +   ",
"                  .     . .       . +   * n o p q / / 0 0 0 2 2 0 r 3 > $   s .     +   ",
"                          +       + + h t o u v w ^ / 2 / 0 0 / / 2 2 ' 5     +     +   ",
"                      .           +   x y z A i B 0 C 0 0 0 2 / 2 / _ t #     .     +   ",
"                      +   .     - $ D E F G H I : r 8 0 2 2 0 2 J K L x @ +             ",
"                          s . & t c M N o K O P Q w ^ ^ R R S G T U V % +               ",
"                  .     + . W X Y Z 0 N `  .H ..} +.q Q K @.#.Y S $.= @ .               ",
"                . + . + + x V %.&.e *.U =...H -.: N ;.M >.-.K j ,.'.=   + . .           ",
"                    +     * ).e !.a : $.B A H >.~.{.].).^./.y (._.  . . . +             ",
"                        = + :.q 9 <.[.}.|.T  .#.j 1.f Z 2.3.4.4.) -       5.            ",
"                    +   - 6.F 1 2 7.8.|.9.I 0.2.a.b.c.8 :.d.) e.f.!         +           ",
"                . + . + h e.g.0 w h.4 i.9.j.k.l.m.n.q <.' f.o.p.=         + . +         ",
"                  .   + - q.r.2 v , s.I t.X E u.M v.w.b = % k ,.* +       . +           ",
"                      . W x.K 3 y.z.A.s.B.C.d.F l l D.M E.F.d G.#   . +                 ",
"                    .   ! H.#.I.: J.X c K.L.M.O N.N.g.M.(.D.y.'.! .                     ",
"                  .   + - o.J O...P.B.y Q.X R.S.T.z y.+.l 2 U.h .     .                 ",
"                        = V.W. .X.N.Y.Z.`. +.+^.f f N !.3 9 ~.! .                       ",
"                    +   @ x.N N.++R.p.@+$.#+P.N u $+7 w %+| L - =                       ",
"                        . &+*+Y B F.=+h.T U.L Y.} $+] | a 2 o # @                       ",
"                . +     . -+B Y h..+B ;+..f $+D.: T q 8 Z 8 >+x .                       ",
"                  . +   @ x.;+A } #.F j k h.).k z f l 3 &./ ` x .     +                 ",
"                      + = ,+h.N...u 7.u } ..L ..e  .g.| _ ^ '+* .       .               ",
"                  .   . @ ~ 2.)+O.A z O H z 7._ _ #.b.3 R %+j # .                       ",
"                      . . V.` N.: z u K H O.Z &.g.+.%.c.b.9 Y.% @               +       ",
"                  +       o.#+K ++0.!+Y.b.1 b.+.G f 3 a !.w *+h .                     + ",
"                + 5.    . i  +W...H 1.H f $+~+u N.&.%+)+] I.~.@ @                       ",
"                  +     + {+3..+Y.2...+.-.-.u b.w 3 _ !.D.9 F   @                 +     ",
"                  .   + + ]+P.B h.a.U.7 H +.f %+8 &.)+v d c.Y.h .                   +   ",
"                  +   @ s g -.9 )+<.d *.] Z r | &.Q P r.<.^+F s @                       ",
"                    .     q.B !.3 2 2 C C 3 I._ ^+D.O.b.P l 7 . .                       ",
"                +       . /+w.O v a q &.Q (+S P u T.n.Y y.9 _+W @                       ",
"                        W :+1.~+7.O.*.O.g.f y.u O.Y <+..*.3 *+W @                       ",
"                    .     [+}+L y.P l T.P f Y Y |+1+N.Y ] 2 ;+h .                   +   ",
"                        - E c }+}.2+@.#.|+|+A H W.~+f %.| 9 l.x .               .       ",
"                        ! _.j.|.v.9.3+j W.A H  .f !.I./ 0 H 5.=                 + s     ",
"                  +       s u.{ ] r.y.T.$+P v R ( ^ ( r a ,.*                   s 5.    ",
"                + . + . + h G.B.U.2 | ^ ^ ^ / 8 3 Z d q 2+s @ +                   +     ",
"                    .   + + ! !+R.7 R 3 ^ 9 a ] u Y <+v.x.. +                           ",
"                      .   + . + 4+9.k y.b.^+l D.~+L Z.# = +   +                         ",
"                          + .   ! -+t {+5+6+v./.!+o.# @   + +                           ",
"                                  @ ! # # h W # # W .       . +                         ",
"                                            . . +     +     +                           ",
"                                  .                         .                           ",
"                                      + .   .   . +           .                         ",
"                                      .         + .           +                         ",
"                  .                                   +   . +                           ",
"                                                                                        ",
"                                                                                        ",
"                                                                                        ",
"                                                                                        "};
