/* XPM */
static char * on60_xpm[] = {
"44 60 195 2",
"  	c None",
". 	c #EBEBEB",
"+ 	c #BFBFBF",
"@ 	c #858585",
"# 	c #6D6D6D",
"$ 	c #8F8F8F",
"% 	c #C6C6C6",
"& 	c #646464",
"* 	c #1A1A1A",
"= 	c #060606",
"- 	c #020202",
"; 	c #080808",
"> 	c #171717",
", 	c #454545",
"' 	c #A1A1A1",
") 	c #C9C9C9",
"! 	c #424242",
"~ 	c #050505",
"{ 	c #0E0E0E",
"] 	c #000000",
"^ 	c #070707",
"/ 	c #828282",
"( 	c #4D4D4D",
"_ 	c #040404",
": 	c #0A0A0A",
"< 	c #010101",
"[ 	c #111111",
"} 	c #949494",
"| 	c #9C9C9C",
"1 	c #212121",
"2 	c #151515",
"3 	c #272727",
"4 	c #CBCBCB",
"5 	c #CFCFCF",
"6 	c #5E5E5E",
"7 	c #5B5B5B",
"8 	c #202020",
"9 	c #AEAEAE",
"0 	c #878787",
"a 	c #4C4C4C",
"b 	c #737373",
"c 	c #131313",
"d 	c #090909",
"e 	c #CECECE",
"f 	c #303030",
"g 	c #242424",
"h 	c #0F0F0F",
"i 	c #969696",
"j 	c #3A3A3A",
"k 	c #3B3B3B",
"l 	c #6C6C6C",
"m 	c #030303",
"n 	c #B9B9B9",
"o 	c #4F4F4F",
"p 	c #393939",
"q 	c #3F3F3F",
"r 	c #909090",
"s 	c #363636",
"t 	c #3E3E3E",
"u 	c #4B4B4B",
"v 	c #808080",
"w 	c #494949",
"x 	c #383838",
"y 	c #282828",
"z 	c #141414",
"A 	c #161616",
"B 	c #252525",
"C 	c #606060",
"D 	c #6E6E6E",
"E 	c #B2B2B2",
"F 	c #999999",
"G 	c #2C2C2C",
"H 	c #121212",
"I 	c #5F5F5F",
"J 	c #3C3C3C",
"K 	c #3D3D3D",
"L 	c #373737",
"M 	c #555555",
"N 	c #464646",
"O 	c #797979",
"P 	c #181818",
"Q 	c #101010",
"R 	c #262626",
"S 	c #5C5C5C",
"T 	c #404040",
"U 	c #838383",
"V 	c #474747",
"W 	c #ACACAC",
"X 	c #E0E0E0",
"Y 	c #6B6B6B",
"Z 	c #1B1B1B",
"` 	c #484848",
" .	c #565656",
"..	c #696969",
"+.	c #727272",
"@.	c #8D8D8D",
"#.	c #B4B4B4",
"$.	c #C7C7C7",
"%.	c #5D5D5D",
"&.	c #1F1F1F",
"*.	c #656565",
"=.	c #7B7B7B",
"-.	c #7F7F7F",
";.	c #616161",
">.	c #535353",
",.	c #A3A3A3",
"'.	c #A9A9A9",
").	c #D4D4D4",
"!.	c #343434",
"~.	c #757575",
"{.	c #8A8A8A",
"].	c #6F6F6F",
"^.	c #515151",
"/.	c #1E1E1E",
"(.	c #0C0C0C",
"_.	c #A5A5A5",
":.	c #C8C8C8",
"<.	c #DCDCDC",
"[.	c #2F2F2F",
"}.	c #545454",
"|.	c #848484",
"1.	c #979797",
"2.	c #ADADAD",
"3.	c #AAAAAA",
"4.	c #505050",
"5.	c #232323",
"6.	c #D8D8D8",
"7.	c #BCBCBC",
"8.	c #292929",
"9.	c #919191",
"0.	c #898989",
"a.	c #A7A7A7",
"b.	c #818181",
"c.	c #686868",
"d.	c #E9E9E9",
"e.	c #F1F1F1",
"f.	c #313131",
"g.	c #707070",
"h.	c #939393",
"i.	c #929292",
"j.	c #BDBDBD",
"k.	c #222222",
"l.	c #F7F7F7",
"m.	c #9A9A9A",
"n.	c #CACACA",
"o.	c #0D0D0D",
"p.	c #959595",
"q.	c #B3B3B3",
"r.	c #AFAFAF",
"s.	c #7A7A7A",
"t.	c #333333",
"u.	c #2B2B2B",
"v.	c #767676",
"w.	c #C2C2C2",
"x.	c #787878",
"y.	c #636363",
"z.	c #2E2E2E",
"A.	c #4A4A4A",
"B.	c #434343",
"C.	c #5A5A5A",
"D.	c #626262",
"E.	c #B0B0B0",
"F.	c #9F9F9F",
"G.	c #777777",
"H.	c #7E7E7E",
"I.	c #575757",
"J.	c #A4A4A4",
"K.	c #747474",
"L.	c #2A2A2A",
"M.	c #0B0B0B",
"N.	c #585858",
"O.	c #868686",
"P.	c #676767",
"Q.	c #595959",
"R.	c #666666",
"S.	c #1D1D1D",
"T.	c #ABABAB",
"U.	c #323232",
"V.	c #BBBBBB",
"W.	c #BEBEBE",
"X.	c #1C1C1C",
"Y.	c #E5E5E5",
"Z.	c #191919",
"`.	c #525252",
" +	c #CDCDCD",
".+	c #353535",
"++	c #C0C0C0",
"@+	c #8E8E8E",
"#+	c #444444",
"$+	c #414141",
"%+	c #6A6A6A",
"&+	c #7C7C7C",
"*+	c #B7B7B7",
"=+	c #9B9B9B",
"-+	c #8B8B8B",
". . . . . . . . . . . . . . . . . . . . . . . . . . . . . . . . . . . . . . . . . . . . ",
". . . . . . . . . . . . . . . . . . . . . . . . . . . . . . . . . . . . . . . . . . . . ",
". . . . . . . . . . . . . . . . . . . . . . . . . . . . . . . . . . . . . . . . . . . . ",
". . . . . . . . . . . . . . . . . . . . . . . . . . . . . . . . . . . . . . . . . . . . ",
". . . . . . . . . . . . . . . . . . . . . . . . . . . . . . . . . . . . . . . . . . . . ",
". . . . . . . . . . . . . . . . . . . . . . . . . . + @ # $ % . . . . . . . . . . . . . ",
". . . . . . . . . . . . . . . . . . . . . . . . . & * = - ; > , ' . . . . . . . . . . . ",
". . . . . . . . . . . . . . . . . . . . . . . ) ! ~ - { { ; ] ] ^ / . . . . . . . . . . ",
". . . . . . . . . . . . . . . . . . . . . . . ( - = _ : ; _ < ] ^ [ } . . . . . . . . . ",
". . . . . . . . . . . . . . . . . . . . . . | 1 2 = - ] ] < < ] ; _ 3 4 . . . . . . . . ",
". . . . . . . . . . . . . . . . . . . . . 5 6 7 8 ] ] < < - - < - ; { 9 . . . . . . . . ",
". . . . . . . . . . . . . . . . . . . . . 0 a b c - - < < < ] ] < d ^ @ . . . . . . . . ",
". . . . . . . . . . . . . . . . . . . . e a f g h = - ] - < < - - ] ] $ . . . . . . . . ",
". . . . . . . . . . . . . . . . . . . . i j k 5 l < m < < < ] - ] - > e . . . . . . . . ",
". . . . . . . . . . . . . . . . . . . n o p q r , d _ < ] ] < ] s t u . . . . . . . . . ",
". . . . . . . . . . . . . . . . e | v w a t x y z h = = A A B p C D E . . . . . . . . . ",
". . . . . . . . . . . . . . . F G H < w I J q K ! L c z t M N G B O . . . . . . . . . . ",
". . . . . . . . . . . . . . E P Q 2 R D S K q T , w U v V T t 6 W X . . . . . . . . . . ",
". . . . . . . . . . . . . . Y 2 Z [ , O l k q V `  ...Y +.@.i #.$.. . . . . . . . . . . ",
". . . . . . . . . . . . . . %.c : &.*.=.-.C J N 6 ;.3 H >.,.'.'.% . . . . . . . . . . . ",
". . . . . . . . . . . . . ).o { ] !.~.-.{.r ].>.^./.(._ %._.% :.<.. . . . . . . . . . . ",
". . . . . . . . . . . . . :.[.< h }./ |.{.1.2.3.4.5.c &.$ ).6.7.. . . . . . . . . . . . ",
". . . . . . . . . . . . . 6.8.] g # 9.r 0.F n a.v b.c.} d.e.7 W . . . . . . . . . . . . ",
". . . . . . . . . . . . . . t ^ f.g.h.9.i.j._.o 8 8 k.v l.m.1 n.. . . . . . . . . . . . ",
". . . . . . . . . . . . . . N o., p.F | q.r.s.x t.t.[.s.#.k.f.X . . . . . . . . . . . . ",
". . . . . . . . . . . . . . s u.K v.i.i w.F x.y.z.j f.L 8 ] A.. . . . . . . . . . . . . ",
". . . . . . . . . . . . . . B.J C.t.D.E.F.G.H.+.3 3 w Z ^ : ` . . . . . . . . . . . . . ",
". . . . . . . . . . . . . . w t.I.x.7.J.O K.v.w f L.( h M.~ u . . . . . . . . . . . . . ",
". . . . . . . . . . . . . . N.G l m.O.}.C A.u D.! L.* ~ [ ] a . . . . . . . . . . . . . ",
". . . . . . . . . . . . . . l G }.H.l P.K 3 L.k., C c _ H _ Q.. . . . . . . . . . . . . ",
". . . . . . . . . . . . . . P.k ! N o 6 7 }.Y 7 j 3 8 ^ Q - I . . . . . . . . . . . . . ",
". . . . . . . . . . . . . . }.t.K f !.f ! K u K 2 J [.~ > = R.. . . . . . . . . . . . . ",
". . . . . . . . . . . . . . >.S.u.k j x q j !.> > N /.^ A M.6 . . . . . . . . . . . . . ",
". . . . . . . . . . . . . . I t., j f t q u.H Q [.L P (./.: D.. . . . . . . . . . . . . ",
". . . . . . . . . . . . . . K.t I.].T.D./.{ /.L p 3 ^ [ Z h N.. . . . . . . . . . . . . ",
". . . . . . . . . . . . . 5 G.B.K q ;.q 3 L.U.f t.Q M.S.* o.` . . . . . . . . . . . . . ",
". . . . . . . . . . . . . V.,.H.D.>.K L T T f /.h ^ > Z k.: o . . . . . . . . . . . . . ",
". . . . . . . . . . . . . W.v.l }.^.A.( q L 3 M._ Q S.g 1 (.D.. . . . . . . . . . . . . ",
". . . . . . . . . . . . . 4 T : S.&.1 R * H d ~ Q z y 8.&.X.o . . . . . . . . . . . . . ",
". . . . . . . . . . . . . 6.l Z ^ ] ] m m ^ o.> X.k.u./.y 8 ( . . . . . . . . . . . . . ",
". . . . . . . . . . . . . Y.c.x g [ c Q z Z.B y f z.5.G f.: `.. . . . . . . . . . . . . ",
". . . . . . . . . . . . .  +;.U.!.u.R u.[.3 f.f u.G .+K R ^ N.. . . . . . . . . . . . . ",
". . . . . . . . . . . . . ++@+u f.y 8 z.y 3 G G #+$+t.G * ] P.. . . . . . . . . . . . . ",
". . . . . . . . . . . . . n | @+=.%+M N #+#+k q B.U.3 P ~ : 3.. . . . . . . . . . . . . ",
". . . . . . . . . . . . . $.1.-.b.{.&+6 B.k q J 3 Z o.- < q . . . . . . . . . . . . . . ",
". . . . . . . . . . . . . . a.& * 8.f.z.L.y g A ; = ; d [ W . . . . . . . . . . . . . . ",
". . . . . . . . . . . . . . n.i.A.] ~ = = = - _ ^ H 1 c %+. . . . . . . . . . . . . . . ",
". . . . . . . . . . . . . . . T.x.( A ^ = : [ * f G .+b.. . . . . . . . . . . . . . . . ",
". . . . . . . . . . . . . . . . *+{.7 f./.X.8 k.U.u E.. . . . . . . . . . . . . . . . . ",
". . . . . . . . . . . . . . . . . . e V.=+-+b.@.T.. . . . . . . . . . . . . . . . . . . ",
". . . . . . . . . . . . . . . . . . . . . . . . . . . . . . . . . . . . . . . . . . . . ",
". . . . . . . . . . . . . . . . . . . . . . . . . . . . . . . . . . . . . . . . . . . . ",
". . . . . . . . . . . . . . . . . . . . . . . . . . . . . . . . . . . . . . . . . . . . ",
". . . . . . . . . . . . . . . . . . . . . . . . . . . . . . . . . . . . . . . . . . . . ",
". . . . . . . . . . . . . . . . . . . . . . . . . . . . . . . . . . . . . . . . . . . . ",
". . . . . . . . . . . . . . . . . . . . . . . . . . . . . . . . . . . . . . . . . . . . ",
". . . . . . . . . . . . . . . . . . . . . . . . . . . . . . . . . . . . . . . . . . . . ",
". . . . . . . . . . . . . . . . . . . . . . . . . . . . . . . . . . . . . . . . . . . . ",
". . . . . . . . . . . . . . . . . . . . . . . . . . . . . . . . . . . . . . . . . . . . ",
". . . . . . . . . . . . . . . . . . . . . . . . . . . . . . . . . . . . . . . . . . . . "};
