/* XPM */
static char * arrow_xpm[] = {
"19 29 129 2",
"  	c #B93E40",
". 	c #B83F37",
"+ 	c #BB3B3A",
"@ 	c #BD3A42",
"# 	c #BB3D49",
"$ 	c #B73F4B",
"% 	c #B53D46",
"& 	c #BB3C43",
"* 	c #C63D44",
"= 	c #BF383F",
"- 	c #AF4140",
"; 	c #BC3E42",
"> 	c #B43D37",
", 	c #B93D3D",
"' 	c #BB3E44",
") 	c #B9414A",
"! 	c #B34248",
"~ 	c #B14042",
"{ 	c #B73C3E",
"] 	c #BD3B3B",
"^ 	c #C4373F",
"/ 	c #B44744",
"( 	c #AC3A39",
"_ 	c #B73F3E",
": 	c #B73F40",
"< 	c #B53E40",
"[ 	c #B23F42",
"} 	c #AE403F",
"| 	c #AF3F3B",
"1 	c #B63C37",
"2 	c #BB3A34",
"3 	c #C23F44",
"4 	c #C13C41",
"5 	c #BD4546",
"6 	c #BA4244",
"7 	c #B73F41",
"8 	c #B33D3D",
"9 	c #B53F3D",
"0 	c #BC413C",
"a 	c #C03F3A",
"b 	c #C43D39",
"c 	c #BA373D",
"d 	c #BE4044",
"e 	c #B7514D",
"f 	c #B83D40",
"g 	c #B93D3F",
"h 	c #C04041",
"i 	c #C43F40",
"j 	c #C23C3D",
"k 	c #C03A3B",
"l 	c #B63C49",
"m 	c #B67A72",
"n 	c #FFE1D1",
"o 	c #BA3F42",
"p 	c #B83D3F",
"q 	c #BD3F40",
"r 	c #C54041",
"s 	c #C0393D",
"t 	c #B43136",
"u 	c #AE393F",
"v 	c #B2484C",
"w 	c #CC8990",
"x 	c #FEF4E8",
"y 	c #FEFFF1",
"z 	c #B94143",
"A 	c #B63E3F",
"B 	c #BA3E3C",
"C 	c #BE3E3F",
"D 	c #B4373B",
"E 	c #AA4044",
"F 	c #BA6B6E",
"G 	c #D39B9C",
"H 	c #FFFCFD",
"I 	c #FFFFFD",
"J 	c #FFF8F9",
"K 	c #BA4444",
"L 	c #B43E3C",
"M 	c #B53E3A",
"N 	c #B83E3D",
"O 	c #B03F41",
"P 	c #B56063",
"Q 	c #E2B4B4",
"R 	c #FFFBF6",
"S 	c #FEFDFF",
"T 	c #FCFBFF",
"U 	c #FFF8FF",
"V 	c #BA3F41",
"W 	c #B5453A",
"X 	c #B63937",
"Y 	c #C34247",
"Z 	c #B43A45",
"` 	c #C56D79",
" .	c #F7DADC",
"..	c #FCFFFF",
"+.	c #FFFCFF",
"@.	c #FFFFFF",
"#.	c #BB4042",
"$.	c #C4373D",
"%.	c #B93E41",
"&.	c #AC3F45",
"*.	c #CA888A",
"=.	c #FBF1E8",
"-.	c #FFFDFB",
";.	c #FFF3F9",
">.	c #F7FFFF",
",.	c #BC4143",
"'.	c #BD4244",
").	c #B04245",
"!.	c #B0424B",
"~.	c #DDAAA9",
"{.	c #F8FBF2",
"].	c #FFFDFF",
"^.	c #F9FFFF",
"/.	c #AA605D",
"(.	c #DEC2B7",
"_.	c #FFFDF7",
":.	c #FFFAFF",
"<.	c #F8F5FC",
"[.	c #FEFCFD",
"}.	c #FEFFFB",
"|.	c #B53A3C",
"1.	c #C04547",
"2.	c #C54A4C",
"3.	c #FFD0CD",
"4.	c #FFF8ED",
"5.	c #FFFEF8",
"6.	c #FFF6FB",
"7.	c #FFFEFF",
"8.	c #FCFEF9",
"                                      ",
"                                      ",
"                                      ",
"                                      ",
"                                      ",
"                                      ",
"                                      ",
"                                      ",
"                                      ",
"                                      ",
"                                      ",
"                                      ",
"                                      ",
"                                      ",
"                                      ",
"                                      ",
"                . + @ # $ % & * = - ; ",
"                > , ' ) ! ~ { ] ^ / ( ",
"                _ : < [ } | 1 2 3 4 5 ",
"                6 7 8 8 9 0 a b c d e ",
"                6 f g h i j k k l m n ",
"                o p q r s t u v w x y ",
"                z A B C D E F G H I J ",
"                K L M N O P Q R S T U ",
"  p p p p   V V W X Y Z `  ...+.@.@.@.",
"p p         V #.$.%.&.*.=.-.;.>.@.@.@.",
"V ,.'.#.  { p   ).!.~.{.@.].^.@.@.@.@.",
"  #.,.V p p V './.(._.+.:.<.[.}.@.@.@.",
"|.{ p p p V 1.2.3.4.5.6.:.].7.8.@.@.@."};
