/* XPM */
static char * flipper_off_xpm[] = {
"30 40 813 2",
"  	c #BA3F41",
". 	c #B44043",
"+ 	c #B93F3E",
"@ 	c #B73439",
"# 	c #B63637",
"$ 	c #B83A3B",
"% 	c #B73738",
"& 	c #B43337",
"* 	c #BA3A37",
"= 	c #B63B3E",
"- 	c #B83839",
"; 	c #B9383D",
"> 	c #B43735",
", 	c #B43435",
"' 	c #B42F30",
") 	c #B73537",
"! 	c #B73233",
"~ 	c #B73B3D",
"{ 	c #B6403E",
"] 	c #B63A3C",
"^ 	c #B33538",
"/ 	c #B7393C",
"( 	c #B63839",
"_ 	c #B73C3E",
": 	c #B6383C",
"< 	c #B93D3F",
"[ 	c #B83C3E",
"} 	c #BA3E40",
"| 	c #B63F41",
"1 	c #B94341",
"2 	c #C87273",
"3 	c #CA7676",
"4 	c #B83D3F",
"5 	c #C16260",
"6 	c #CB7F7F",
"7 	c #BE4D4F",
"8 	c #C04B51",
"9 	c #BF5957",
"0 	c #BC4348",
"a 	c #C15555",
"b 	c #C76564",
"c 	c #CE7C7E",
"d 	c #C45355",
"e 	c #C46664",
"f 	c #CA6E71",
"g 	c #BB3D3E",
"h 	c #B83636",
"i 	c #BF4B4E",
"j 	c #CC7C7B",
"k 	c #C25B5C",
"l 	c #BE5053",
"m 	c #BC4547",
"n 	c #C05859",
"o 	c #BB4043",
"p 	c #B63E3D",
"q 	c #B93E41",
"r 	c #B93E40",
"s 	c #B53A3C",
"t 	c #C15457",
"u 	c #DEA7AA",
"v 	c #DBA7A9",
"w 	c #D99999",
"x 	c #DBA4A1",
"y 	c #D59798",
"z 	c #DDABAC",
"A 	c #DDA1A3",
"B 	c #E2BBBC",
"C 	c #D18788",
"D 	c #D79A99",
"E 	c #E6BABB",
"F 	c #D49792",
"G 	c #CA706F",
"H 	c #E0AEB1",
"I 	c #C56A67",
"J 	c #B83837",
"K 	c #D79D9C",
"L 	c #D49898",
"M 	c #DAA5A1",
"N 	c #E7C9CB",
"O 	c #D38487",
"P 	c #DDA3A2",
"Q 	c #B94142",
"R 	c #B93E43",
"S 	c #B93C42",
"T 	c #B63E3F",
"U 	c #BA3E3E",
"V 	c #B9383C",
"W 	c #C05356",
"X 	c #E5BFBE",
"Y 	c #DAAAAA",
"Z 	c #DA9EA0",
"` 	c #D4989A",
" .	c #B73F41",
"..	c #E6C4C3",
"+.	c #EFDFDF",
"@.	c #E0B6B8",
"#.	c #E3BDBC",
"$.	c #D99D9F",
"%.	c #E1BDBD",
"&.	c #D08083",
"*.	c #C86A6A",
"=.	c #E2B6B5",
"-.	c #EBCED0",
";.	c #BD5353",
">.	c #C04D50",
",.	c #DCA4A5",
"'.	c #BC5252",
").	c #D99B9C",
"!.	c #E8CED1",
"~.	c #E6C6C7",
"{.	c #E6C4C5",
"].	c #BB4042",
"^.	c #BA3F42",
"/.	c #B83D40",
"(.	c #B63E40",
"_.	c #B73A3E",
":.	c #C05255",
"<.	c #D38F8C",
"[.	c #BA4646",
"}.	c #C45858",
"|.	c #DDA5A8",
"1.	c #E1AFAE",
"2.	c #CF8586",
"3.	c #DEB5B3",
"4.	c #CD7C7B",
"5.	c #DEB0B0",
"6.	c #CE8080",
"7.	c #DCABA7",
"8.	c #D5999B",
"9.	c #C9797A",
"0.	c #CF8584",
"a.	c #D59998",
"b.	c #CA7175",
"c.	c #D39797",
"d.	c #DAA9A5",
"e.	c #DDA9AB",
"f.	c #D48686",
"g.	c #D4908F",
"h.	c #DCA8AA",
"i.	c #B83E3D",
"j.	c #B94143",
"k.	c #BB484B",
"l.	c #B73F3E",
"m.	c #BE4A4B",
"n.	c #C05454",
"o.	c #BC4646",
"p.	c #B84041",
"q.	c #BD4A4F",
"r.	c #BF4E52",
"s.	c #C35B58",
"t.	c #C0494D",
"u.	c #B84646",
"v.	c #BC4446",
"w.	c #B94D4A",
"x.	c #BB3F41",
"y.	c #BD5556",
"z.	c #BB4545",
"A.	c #BB4845",
"B.	c #BD4B4B",
"C.	c #BA3D43",
"D.	c #B93D3D",
"E.	c #B83A3D",
"F.	c #B93C40",
"G.	c #B83C3C",
"H.	c #BC3C3D",
"I.	c #B73F40",
"J.	c #BA393D",
"K.	c #B83B3F",
"L.	c #B93B3E",
"M.	c #B63935",
"N.	c #B73A38",
"O.	c #B74141",
"P.	c #B7393A",
"Q.	c #B63B3D",
"R.	c #B53F3F",
"S.	c #BB3F3D",
"T.	c #B64040",
"U.	c #B8403F",
"V.	c #B44040",
"W.	c #BA3D41",
"X.	c #BB3F3F",
"Y.	c #B7413F",
"Z.	c #B53D3E",
"`.	c #BB3E42",
" +	c #BA3C3F",
".+	c #B73D3C",
"++	c #BA3C40",
"@+	c #B83D42",
"#+	c #B93F3C",
"$+	c #BB3D40",
"%+	c #B93737",
"&+	c #B9393A",
"*+	c #BA3A3B",
"=+	c #B93739",
"-+	c #B83638",
";+	c #B9363B",
">+	c #B83432",
",+	c #B93B3C",
"'+	c #B53E40",
")+	c #B92525",
"!+	c #AA2222",
"~+	c #A82827",
"{+	c #A82A2B",
"]+	c #A72B2B",
"^+	c #A82C2C",
"/+	c #A92D2D",
"(+	c #A82E2D",
"_+	c #A92F2E",
":+	c #A72F2E",
"<+	c #A8302F",
"[+	c #A63232",
"}+	c #A8322E",
"|+	c #A83232",
"1+	c #A93333",
"2+	c #9C2E2D",
"3+	c #9A1214",
"4+	c #B81317",
"5+	c #B92523",
"6+	c #B73A36",
"7+	c #B90F0F",
"8+	c #AF6866",
"9+	c #C1BFC4",
"0+	c #C6C0C2",
"a+	c #C8C2C4",
"b+	c #C8C4C5",
"c+	c #C8C6C7",
"d+	c #C9C7C8",
"e+	c #C9C9C9",
"f+	c #CBCBCD",
"g+	c #CDCBD0",
"h+	c #CCCECD",
"i+	c #CCD0D3",
"j+	c #D0D1D5",
"k+	c #C6D2D2",
"l+	c #A16565",
"m+	c #B70A0E",
"n+	c #BB1A1F",
"o+	c #B73E43",
"p+	c #B60C0F",
"q+	c #BF8584",
"r+	c #DDF1F2",
"s+	c #E0E5E8",
"t+	c #DDE2E5",
"u+	c #DEE3E6",
"v+	c #DEE2E5",
"w+	c #DDE1E4",
"x+	c #DDE0E5",
"y+	c #DFE0E5",
"z+	c #DDE1E2",
"A+	c #DBDFDE",
"B+	c #DBDFE0",
"C+	c #DFDDE2",
"D+	c #DEECED",
"E+	c #CEACAB",
"F+	c #B3110F",
"G+	c #B71D1F",
"H+	c #BA3A39",
"I+	c #B40C0B",
"J+	c #AF6E72",
"K+	c #CED7DC",
"L+	c #D1D1D3",
"M+	c #CDCDCD",
"N+	c #CFCFCF",
"O+	c #CECECE",
"P+	c #CDCFCE",
"Q+	c #CDCED0",
"R+	c #CECED0",
"S+	c #CFCDD0",
"T+	c #CCD7D3",
"U+	c #CAAAAD",
"V+	c #B81212",
"W+	c #B91F1D",
"X+	c #B93C38",
"Y+	c #B30B0A",
"Z+	c #A36163",
"`+	c #CAD5D9",
" @	c #D0D0D0",
".@	c #CDCDCF",
"+@	c #CECECC",
"@@	c #CCCDD1",
"#@	c #CED3D7",
"$@	c #CAB0B1",
"%@	c #BA0E0E",
"&@	c #BA4243",
"*@	c #B40808",
"=@	c #995459",
"-@	c #C9D4D8",
";@	c #D4D4D4",
">@	c #D0D0D2",
",@	c #D2D2D4",
"'@	c #D3D3D5",
")@	c #D2D1D6",
"!@	c #D1D2D4",
"~@	c #D1D1CF",
"{@	c #D2D3D5",
"]@	c #D2D8D6",
"^@	c #D0BEBE",
"/@	c #B80E0E",
"(@	c #BA191E",
"_@	c #B53F3D",
":@	c #BD3C40",
"<@	c #B10708",
"[@	c #86454B",
"}@	c #C8DADC",
"|@	c #E2E3E5",
"1@	c #DCDDDF",
"2@	c #DDDDDF",
"3@	c #DDDCE1",
"4@	c #DCDBE0",
"5@	c #DFDEE3",
"6@	c #DEDFE1",
"7@	c #DEE0DF",
"8@	c #DCDDE1",
"9@	c #DEDEE0",
"0@	c #E1E2E4",
"a@	c #DEDCDF",
"b@	c #BE302C",
"c@	c #B51718",
"d@	c #B84444",
"e@	c #B93B3F",
"f@	c #C13737",
"g@	c #980204",
"h@	c #5D3239",
"i@	c #A4B2B5",
"j@	c #DDDEE3",
"k@	c #D6D7DB",
"l@	c #D3D4D6",
"m@	c #D3D4D8",
"n@	c #D4D5DA",
"o@	c #D1D2D6",
"p@	c #D4D2D7",
"q@	c #CFD4D7",
"r@	c #D2D2DA",
"s@	c #D2D3D7",
"t@	c #D2DDE3",
"u@	c #B99192",
"v@	c #AF1112",
"w@	c #BA2123",
"x@	c #BD3132",
"y@	c #B91D1E",
"z@	c #B90508",
"A@	c #6D0000",
"B@	c #513439",
"C@	c #6A6E77",
"D@	c #9FA2A9",
"E@	c #C6C9CE",
"F@	c #C5C6CA",
"G@	c #C2C3C7",
"H@	c #C3C4C8",
"I@	c #C3C4C9",
"J@	c #C3C2C7",
"K@	c #C0C4C5",
"L@	c #C4C3CB",
"M@	c #C1C6CA",
"N@	c #C5C4CA",
"O@	c #C6C5CB",
"P@	c #C3D2D9",
"Q@	c #C0898C",
"R@	c #B70805",
"S@	c #B62424",
"T@	c #B63132",
"U@	c #B63A38",
"V@	c #B72727",
"W@	c #B91315",
"X@	c #B70304",
"Y@	c #BA0003",
"Z@	c #A40000",
"`@	c #510000",
" #	c #543739",
".#	c #616A73",
"+#	c #646770",
"@#	c #92959E",
"##	c #C6C7CC",
"$#	c #C2C3C8",
"%#	c #C3C2C8",
"&#	c #C5C4CC",
"*#	c #C4C4CC",
"=#	c #C0C6C6",
"-#	c #C4D3DA",
";#	c #C1A2A8",
">#	c #BB2929",
",#	c #B70002",
"'#	c #B80F0C",
")#	c #BB1D1E",
"!#	c #B92728",
"~#	c #B80105",
"{#	c #B90101",
"]#	c #BB0000",
"^#	c #AD0101",
"/#	c #910101",
"(#	c #520000",
"_#	c #553536",
":#	c #636C73",
"<#	c #62656E",
"[#	c #61646D",
"}#	c #888B94",
"|#	c #C0C0C8",
"1#	c #C9CACF",
"2#	c #C5C6CB",
"3#	c #C1C4CB",
"4#	c #C2C5CC",
"5#	c #C2C6C9",
"6#	c #C4C5CA",
"7#	c #C4C4D0",
"8#	c #C4C3C8",
"9#	c #C5D2DA",
"0#	c #C1BAC1",
"a#	c #BA4848",
"b#	c #B60001",
"c#	c #B90302",
"d#	c #B90B0A",
"e#	c #B70100",
"f#	c #B80002",
"g#	c #AF0102",
"h#	c #9D0200",
"i#	c #8E0000",
"j#	c #523539",
"k#	c #696A6F",
"l#	c #60626E",
"m#	c #7C7F88",
"n#	c #B8B8C0",
"o#	c #CACBD0",
"p#	c #C4C5C9",
"q#	c #C2C6C7",
"r#	c #BFC6CC",
"s#	c #C3C3CD",
"t#	c #C4C3C9",
"u#	c #BFC4C8",
"v#	c #C5CFD8",
"w#	c #C3CAD4",
"x#	c #BA6666",
"y#	c #B50505",
"z#	c #B90000",
"A#	c #AD0002",
"B#	c #9B0100",
"C#	c #950001",
"D#	c #8B0101",
"E#	c #500000",
"F#	c #563836",
"G#	c #677172",
"H#	c #626B70",
"I#	c #656E75",
"J#	c #666874",
"K#	c #61636F",
"L#	c #747682",
"M#	c #A7AEB6",
"N#	c #C5CAD0",
"O#	c #C8C7CF",
"P#	c #C5C5CD",
"Q#	c #C3C6CD",
"R#	c #C7C6CE",
"S#	c #C6C5CD",
"T#	c #C4C8CB",
"U#	c #C6CBD1",
"V#	c #C8D7DC",
"W#	c #BE7C80",
"X#	c #B8080B",
"Y#	c #AD0100",
"Z#	c #A00002",
"`#	c #940000",
" $	c #8F0100",
".$	c #4E0000",
"+$	c #432628",
"@$	c #4D5152",
"#$	c #534A4D",
"$$	c #5C555D",
"%$	c #666A73",
"&$	c #676A71",
"*$	c #626671",
"=$	c #6C6F7E",
"-$	c #A0A3AC",
";$	c #CCCFD4",
">$	c #D3D4D9",
",$	c #D1D1D9",
"'$	c #D1D4DB",
")$	c #D0D3DA",
"!$	c #CFD2DB",
"~$	c #D0D4DD",
"{$	c #D3D3DD",
"]$	c #CFD7DA",
"^$	c #D4DEE8",
"/$	c #B95758",
"($	c #A40001",
"_$	c #950002",
":$	c #920001",
"<$	c #8C0001",
"[$	c #660000",
"}$	c #6C0405",
"|$	c #7F0909",
"1$	c #840705",
"2$	c #920A0C",
"3$	c #804245",
"4$	c #616E74",
"5$	c #636B76",
"6$	c #656773",
"7$	c #71747D",
"8$	c #ADACB4",
"9$	c #C2C7CD",
"0$	c #BFC2C9",
"a$	c #BFBFC7",
"b$	c #BDC0C7",
"c$	c #BBBEC5",
"d$	c #BBC0C6",
"e$	c #BDBDC7",
"f$	c #B9BEC4",
"g$	c #BABEC1",
"h$	c #B4C1C7",
"i$	c #A94A4E",
"j$	c #9F0102",
"k$	c #900000",
"l$	c #910100",
"m$	c #950000",
"n$	c #A00000",
"o$	c #A60100",
"p$	c #B60404",
"q$	c #883C3E",
"r$	c #637078",
"s$	c #666F78",
"t$	c #778087",
"u$	c #A4A8B3",
"v$	c #B0B5B9",
"w$	c #ADB2B6",
"x$	c #AEB1B6",
"y$	c #AEB1B8",
"z$	c #ACB1B7",
"A$	c #ADB1BA",
"B$	c #AAB1B9",
"C$	c #ABB2BA",
"D$	c #ACB5BA",
"E$	c #AAB3BA",
"F$	c #ABB3B6",
"G$	c #AEBCC5",
"H$	c #A2979B",
"I$	c #B31011",
"J$	c #A80000",
"K$	c #A10200",
"L$	c #9E0000",
"M$	c #A30001",
"N$	c #A60000",
"O$	c #AA0000",
"P$	c #B50104",
"Q$	c #B90200",
"R$	c #BA0100",
"S$	c #BA0204",
"T$	c #972E32",
"U$	c #6D626A",
"V$	c #858891",
"W$	c #A6A9B0",
"X$	c #A8ABB0",
"Y$	c #A8A9AE",
"Z$	c #A6A7AB",
"`$	c #A7A6AB",
" %	c #A6A4A9",
".%	c #A8A1A8",
"+%	c #A59FA3",
"@%	c #A89CA0",
"#%	c #A79B9F",
"$%	c #A5989F",
"%%	c #A3A0A9",
"&%	c #A55053",
"*%	c #BA0001",
"=%	c #B80201",
"-%	c #B50100",
";%	c #B70000",
">%	c #BC0001",
",%	c #B90002",
"'%	c #B90204",
")%	c #BB0305",
"!%	c #B01C1A",
"~%	c #A43635",
"{%	c #AC4040",
"]%	c #A93F43",
"^%	c #AC3E41",
"/%	c #AB3738",
"(%	c #AC3133",
"_%	c #AC2C2D",
":%	c #AD2527",
"<%	c #B02020",
"[%	c #AF191B",
"}%	c #AF1314",
"|%	c #AE0F13",
"1%	c #B00F14",
"2%	c #B00D0E",
"3%	c #B80000",
"4%	c #BB0004",
"5%	c #BA0200",
"6%	c #BA0106",
"7%	c #B40406",
"8%	c #B60606",
"9%	c #BA0A0D",
"0%	c #B61010",
"a%	c #B71717",
"b%	c #BA221F",
"c%	c #BB1F22",
"d%	c #BF2327",
"e%	c #BA2622",
"f%	c #BB2628",
"g%	c #BD2426",
"h%	c #BB1F20",
"i%	c #BB1B1B",
"j%	c #BB1819",
"k%	c #BA1414",
"l%	c #BC0F11",
"m%	c #BA0C0D",
"n%	c #B70908",
"o%	c #BD0706",
"p%	c #BC0509",
"q%	c #BB0200",
"r%	c #B80606",
"s%	c #BB0504",
"t%	c #B70505",
"u%	c #B80604",
"v%	c #B60A08",
"w%	c #B80906",
"x%	c #B90C0E",
"y%	c #B81010",
"z%	c #B61314",
"A%	c #B91715",
"B%	c #B71D1D",
"C%	c #B8201F",
"D%	c #BC2423",
"E%	c #B72824",
"F%	c #B62C2A",
"G%	c #BA2F34",
"H%	c #B93334",
"I%	c #B73736",
"J%	c #B93435",
"K%	c #B72F2F",
"L%	c #B92D2C",
"M%	c #BA2C2B",
"N%	c #B82828",
"O%	c #B72526",
"P%	c #B82424",
"Q%	c #B91F21",
"R%	c #B81E20",
"S%	c #BA1C1B",
"T%	c #B81818",
"U%	c #B81413",
"V%	c #B71312",
"W%	c #BA1718",
"X%	c #B51B1D",
"Y%	c #B72122",
"Z%	c #B82325",
"`%	c #B62520",
" &	c #B72726",
".&	c #B82C2B",
"+&	c #BB2A2D",
"@&	c #BA2E2D",
"#&	c #B6302D",
"$&	c #B73331",
"%&	c #B73630",
"&&	c #B83634",
"*&	c #B63434",
"=&	c #B93332",
"-&	c #B93135",
";&	c #B92F2F",
">&	c #B82E2E",
",&	c #B82A28",
"'&	c #BB262A",
")&	c #BA2626",
"!&	c #B62222",
"~&	c #B71E20",
"{&	c #B82C2F",
"]&	c #B72D2D",
"^&	c #B82E2C",
"/&	c #BA292C",
"(&	c #B72B2A",
"_&	c #B72F33",
":&	c #B72C2F",
"<&	c #B73132",
"[&	c #B83032",
"}&	c #B93238",
"|&	c #B83336",
"1&	c #B63136",
"2&	c #B73535",
"3&	c #B73734",
"4&	c #B73235",
"5&	c #B83034",
"6&	c #B63031",
"7&	c #B72D2B",
"8&	c #B5292A",
"9&	c #B92929",
"0&	c #B92B2A",
"a&	c #BE4044",
"b&	c #C05251",
"c&	c #BB4045",
"d&	c #BB3438",
"e&	c #BE4A4D",
"f&	c #B94140",
"g&	c #BC3F43",
"h&	c #BA3838",
"i&	c #C24E4F",
"j&	c #C04D48",
"k&	c #B94545",
"l&	c #C24F52",
"m&	c #BD3C41",
"n&	c #BB4345",
"o&	c #C14D4E",
"p&	c #B83231",
"q&	c #BE4443",
"r&	c #C15052",
"s&	c #BE4145",
"t&	c #BC4445",
"u&	c #B8322F",
"v&	c #D08589",
"w&	c #DCACA8",
"x&	c #DFB4AE",
"y&	c #CC7677",
"z&	c #DAA7A3",
"A&	c #DCA5A8",
"B&	c #CB7578",
"C&	c #E1B4B7",
"D&	c #D48E8E",
"E&	c #E2B9B5",
"F&	c #CF7A7F",
"G&	c #D69495",
"H&	c #DCAAA9",
"I&	c #DEACAB",
"J&	c #B42E2F",
"K&	c #C15757",
"L&	c #DBA8A7",
"M&	c #D08081",
"N&	c #D78D8C",
"O&	c #DFADB0",
"P&	c #CE807E",
"Q&	c #E5B9BA",
"R&	c #CC777A",
"S&	c #BA3236",
"T&	c #B63D42",
"U&	c #B3312F",
"V&	c #D69593",
"W&	c #DFB1B3",
"X&	c #E4C2C3",
"Y&	c #D89C9C",
"Z&	c #C3545A",
"`&	c #D38D8F",
" *	c #E6CCCB",
".*	c #DDADAB",
"+*	c #E1BBBA",
"@*	c #ECD8D9",
"#*	c #D18A88",
"$*	c #E4CAC9",
"%*	c #CC777C",
"&*	c #D79A97",
"**	c #EACECA",
"=*	c #E5BDBE",
"-*	c #B42527",
";*	c #CD7977",
">*	c #C15352",
",*	c #E3BBBC",
"'*	c #D79B9D",
")*	c #E4C5C3",
"!*	c #ECD4D2",
"~*	c #CB7B7E",
"{*	c #B52E34",
"]*	c #B63230",
"^*	c #D49293",
"/*	c #CC7B7A",
"(*	c #B94244",
"_*	c #D08983",
":*	c #DAA4A4",
"<*	c #D2918F",
"[*	c #EAC7CB",
"}*	c #D18587",
"|*	c #E7C7CA",
"1*	c #CC7E7C",
"2*	c #D9A7A6",
"3*	c #C56364",
"4*	c #D79FA2",
"5*	c #CC7C7D",
"6*	c #DDA9AD",
"7*	c #B53836",
"8*	c #C66A6B",
"9*	c #DCA1A3",
"0*	c #D79B9B",
"a*	c #CE7F82",
"b*	c #BE5456",
"c*	c #C76266",
"d*	c #CF7D81",
"e*	c #B53237",
"f*	c #B83C3A",
"g*	c #BF5555",
"h*	c #BC4144",
"i*	c #CB797B",
"j*	c #C65F60",
"k*	c #BE4147",
"l*	c #BB4747",
"m*	c #BE5A5A",
"n*	c #C04F51",
"o*	c #CD7979",
"p*	c #C97477",
"q*	c #C36063",
"r*	c #C35F61",
"s*	c #B94747",
"t*	c #B63432",
"u*	c #CD7778",
"v*	c #C05253",
"w*	c #BB4446",
"x*	c #BE4749",
"y*	c #BE5250",
"z*	c #BB3A3E",
"A*	c #BA3E3C",
"B*	c #B43232",
"C*	c #B63539",
"D*	c #B43637",
"E*	c #B73B39",
"F*	c #B73B3B",
"G*	c #B63635",
"H*	c #B53834",
"I*	c #BA3C3D",
"J*	c #B63339",
"K*	c #B33334",
"L*	c #B83A3E",
"  . + @ # $ % & * = - ; > , ' ) ! ! ~ { ] ^ / ( _ : < [ } } ",
"+ | 1 2 3 4 5 6 7 8 9 0 a b c d e f g h i j k l m n o p + q ",
"r s t u v w x y z A B C D E F G H E I J K L M N O P Q R S T ",
"U V W X Y Z `  ...+.@.#.$.%.&.*.=.-.;.>.,.'.).!.~.{.].^./.r ",
"(._.:.<.[.}.|.1.2.3.4.5.6.7.8.9.0.a.b.J c.d.e.f.g.h.+ < [ i.",
"} T j.k.l.V m.n.< o.p.q.o r.s.t.u.v.w.s x.y.z.A.< B./.4 4 /.",
"r C.D.E.F.q ] G.U H.I.J.K.L.M.$ [ G.N.O./.P.} Q.I.U 4 } } r ",
"{ U ^.F.R.(.S.q q D.l.+ I.I.T.+ U q T l.} U.p + g V.q r r ^.",
"r T q W.4 } I.} r r I.p.p.Q p.p.I.I. .X.Y.K.q r   4 4 r 4 4 ",
"F.I.W.r 4 I.Z.`.} r r r q r r   +  +p..+r r i.I.r < < r r < ",
"} U I.U < ++r T.< } r 4 4 r r 4 r W.@+  R   U #+4 } } r r } ",
"4 } @+~ $+I.H.%+&+*+&+- - - =+-+-+h ;+>+h ,+K._ 4 < < 4 r } ",
"'+x.r Z.G.)+!+~+{+]+^+/+(+_+:+<+[+}+|+1+2+3+4+5+r 4 4 4 r r ",
"I. +I.  6+7+8+9+0+0+a+b+c+d+e+f+g+h+i+j+k+l+m+n+p.r 4 r r r ",
"4 < U o+J.p+q+r+s+t+u+t+v+w+x+y+z+A+B+C+D+E+F+G+Q r 4 4 4 4 ",
"#+F.r ^.H+I+J+K+L+M+N+N+O+P+Q+R+S+P+R+N+T+U+V+W+p.r 4 4 4 4 ",
"+ Z.T q X+Y+Z+`+ @M+.@M+O+M+O+R+O++@O+@@#@$@%@G+&@| 4 U T @+",
"+ $+i.U i.*@=@-@;@N+>@L+L+,@,@'@)@!@~@{@]@^@/@(@O.4 < (.4 [ ",
"l.U _@^.:@<@[@}@|@1@2@3@4@5@6@7@w+8@5@9@0@a@b@c@d@`.4 e@/.i.",
"W.r o ].f@g@h@i@j@k@l@m@n@n@o@l@p@q@r@j+s@t@u@v@w@~ r j.I.r ",
"I..+x@y@z@A@B@C@D@E@F@G@H@I@I@G@J@K@L@M@N@O@P@Q@V+R@S@T@U@g ",
"V@W@X@Y@Z@`@ #.#+#@#I@##G@$#$#I@%#%#&#G@*#=#I@-#;#>#,#'#)#!#",
"~#{#]#^#/#(#_#:#<#[#}#|#1#I@2#2#3#4#5#6#%#3#7#8#9#0#a#b#c#d#",
"e#f#g#h#i#`@j#k#+#+#l#m#n#o#p#p#*#q#H@*#3#r#s#t#u#v#w#x#y#z#",
"e#A#B#C#D#E#F#G#H#I#J#K#L#M#N#O#P#P#4#Q#P#2#R#S#T#R#U#V#W#X#",
"Y#Z#`#`# $.$+$@$#$$$%$&$*$=$-$;$>$,$,$r@r@'$)$!$)$~${$]$^$/$",
"($_$:$`#<$[$}$|$1$2$3$4$5$6$7$8$9$0$0$|#a$b$c$d$e$f$c$g$h$i$",
"j$`#k$/#l$m$n$o$^#b#p$q$r$s$t$u$v$w$x$y$z$A$B$C$D$E$F$G$H$I$",
"J$K$L$M$N$O$g#P$b#Q$R$S$T$U$V$W$X$Y$Z$`$ % %.%+%@%#%$%%%&%*%",
"=%-%;%=%,#=%*%z#Q$>%,%'%)%!%~%{%]%^%/%(%_%:%<%[%}%|%1%2%X@3%",
"*%3%4%5%e#e#6%7%8%9%0%a%b%c%d%e%f%g%h%i%j%k%l%m%n%o%p%q%r%s%",
"t%u%v%w%x%y%z%A%B%C%D%E%F%G%H%I%- J%K%L%M%N%O%P%Q%R%S%T%U%V%",
"W%X%G+Y%Z%`% &!#.&+&@&#&$&%&J%=+h &&*&H%=&-&;&>&F%,&'&)&!&~&",
"{&]&^&/&(&_&:&.&#&<&[&$&}&}&|&*&1&2&3&h 4&5&|&6&7&K%8&9&(&0&",
"6+M.a&b&c&d&e&f&g&h&  g z.i&j&k&l&m&;+, n&o&p&q&r&s&>.t&u&#&",
"} <&v&w&x&y&5.z&A&B&C&g.D&E&F&G&H&I&J&K&A&L&M&N&O&P&Q&R&3&S&",
"T&U&V&W&X&Y&Z&`& *.*+*@*#*$*%*&***=*-*V&;*>*,*'*)*4.!*~*{*&+",
"i.]*^*/*(*_*).:*<*[*}*|*1*2*3*4*5*6*7*8*9*y 0*a*b*c*d*e*#+D.",
"Z.f*g*[.*&h*i*j*k*5 l*m*n*o*p*q*n&r*s*t*b u*X.v*w*x*y*z*E.A*",
"F.l.P.= + $ B*C*N.D*E*=+F*& G*^ [ H*D.I*J*K*/ ( L*~ ( /.f*G."};
