/* XPM */
static char * off60_xpm[] = {
"43 60 195 2",
"  	c None",
". 	c #EBEBEB",
"+ 	c #C7C7C7",
"@ 	c #B0B0B0",
"# 	c #A4A4A4",
"$ 	c #9B9B9B",
"% 	c #ADADAD",
"& 	c #BABABA",
"* 	c #8D8D8D",
"= 	c #646464",
"- 	c #3E3E3E",
"; 	c #2A2A2A",
"> 	c #272727",
", 	c #292929",
"' 	c #303030",
") 	c #424242",
"! 	c #727272",
"~ 	c #D2D2D2",
"{ 	c #A6A6A6",
"] 	c #767676",
"^ 	c #4D4D4D",
"/ 	c #171717",
"( 	c #080808",
"_ 	c #0E0E0E",
": 	c #151515",
"< 	c #202020",
"[ 	c #343434",
"} 	c #2B2B2B",
"| 	c #505050",
"1 	c #B1B1B1",
"2 	c #C4C4C4",
"3 	c #8E8E8E",
"4 	c #414141",
"5 	c #000000",
"6 	c #060606",
"7 	c #050505",
"8 	c #030303",
"9 	c #010101",
"0 	c #070707",
"a 	c #0D0D0D",
"b 	c #1C1C1C",
"c 	c #252525",
"d 	c #9D9D9D",
"e 	c #9E9E9E",
"f 	c #565656",
"g 	c #141414",
"h 	c #282828",
"i 	c #242424",
"j 	c #212121",
"k 	c #191919",
"l 	c #0C0C0C",
"m 	c #0B0B0B",
"n 	c #CFCFCF",
"o 	c #BDBDBD",
"p 	c #949494",
"q 	c #7A7A7A",
"r 	c #838383",
"s 	c #6F6F6F",
"t 	c #535353",
"u 	c #3D3D3D",
"v 	c #3A3A3A",
"w 	c #3C3C3C",
"x 	c #1F1F1F",
"y 	c #131313",
"z 	c #020202",
"A 	c #717171",
"B 	c #AEAEAE",
"C 	c #9A9A9A",
"D 	c #8B8B8B",
"E 	c #808080",
"F 	c #707070",
"G 	c #5D5D5D",
"H 	c #4C4C4C",
"I 	c #494949",
"J 	c #444444",
"K 	c #393939",
"L 	c #2D2D2D",
"M 	c #222222",
"N 	c #1B1B1B",
"O 	c #D0D0D0",
"P 	c #B5B5B5",
"Q 	c #818181",
"R 	c #484848",
"S 	c #333333",
"T 	c #2E2E2E",
"U 	c #363636",
"V 	c #4B4B4B",
"W 	c #111111",
"X 	c #929292",
"Y 	c #B8B8B8",
"Z 	c #4F4F4F",
"` 	c #323232",
" .	c #2C2C2C",
"..	c #2F2F2F",
"+.	c #313131",
"@.	c #383838",
"#.	c #353535",
"$.	c #040404",
"%.	c #787878",
"&.	c #BEBEBE",
"*.	c #525252",
"=.	c #373737",
"-.	c #232323",
";.	c #181818",
">.	c #777777",
",.	c #C3C3C3",
"'.	c #4E4E4E",
").	c #1E1E1E",
"!.	c #262626",
"~.	c #1A1A1A",
"{.	c #0A0A0A",
"].	c #6D6D6D",
"^.	c #ABABAB",
"/.	c #626262",
"(.	c #616161",
"_.	c #474747",
":.	c #464646",
"<.	c #0F0F0F",
"[.	c #898989",
"}.	c #434343",
"|.	c #161616",
"1.	c #7F7F7F",
"2.	c #5F5F5F",
"3.	c #454545",
"4.	c #090909",
"5.	c #C2C2C2",
"6.	c #595959",
"7.	c #A7A7A7",
"8.	c #121212",
"9.	c #3B3B3B",
"0.	c #101010",
"a.	c #828282",
"b.	c #3F3F3F",
"c.	c #404040",
"d.	c #959595",
"e.	c #B7B7B7",
"f.	c #BBBBBB",
"g.	c #5B5B5B",
"h.	c #5E5E5E",
"i.	c #9C9C9C",
"j.	c #686868",
"k.	c #606060",
"l.	c #979797",
"m.	c #545454",
"n.	c #8F8F8F",
"o.	c #636363",
"p.	c #A0A0A0",
"q.	c #858585",
"r.	c #747474",
"s.	c #585858",
"t.	c #B2B2B2",
"u.	c #848484",
"v.	c #757575",
"w.	c #4A4A4A",
"x.	c #8A8A8A",
"y.	c #AAAAAA",
"z.	c #B6B6B6",
"A.	c #7C7C7C",
"B.	c #A2A2A2",
"C.	c #1D1D1D",
"D.	c #999999",
"E.	c #969696",
"F.	c #5A5A5A",
"G.	c #7E7E7E",
"H.	c #A5A5A5",
"I.	c #868686",
"J.	c #A9A9A9",
"K.	c #7B7B7B",
"L.	c #D7D7D7",
"M.	c #8C8C8C",
"N.	c #909090",
"O.	c #6C6C6C",
"P.	c #C5C5C5",
"Q.	c #F9F9F9",
"R.	c #A3A3A3",
"S.	c #515151",
"T.	c #888888",
"U.	c #9F9F9F",
"V.	c #C9C9C9",
"W.	c #E1E1E1",
"X.	c #D8D8D8",
"Y.	c #5C5C5C",
"Z.	c #919191",
"`.	c #DCDCDC",
" +	c #C8C8C8",
".+	c #7D7D7D",
"++	c #E0E0E0",
"@+	c #A1A1A1",
"#+	c #CDCDCD",
"$+	c #575757",
"%+	c #C6C6C6",
"&+	c #BCBCBC",
"*+	c #666666",
"=+	c #CACACA",
"-+	c #676767",
". . . . . . . . . . . . . . . . . . . . . . . . . . . . . . . . . . . . . . . . . . . ",
". . . . . . . . . . . . . . . . . . . . . . . . . . . . . . . . . . . . . . . . . . . ",
". . . . . . . . . . . . . . . . . . . . . . . . . . . . . . . . . . . . . . . . . . . ",
". . . . . . . . . . . . . . . . . . . . . . . . . . . . . . . . . . . . . . . . . . . ",
". . . . . . . . . . . . . . . . . . . . . . . . . . . . . . . . . . . . . . . . . . . ",
". . . . . . . . . . . . . . . . . . . . . . . . . . . . . . . . . . . . . . . . . . . ",
". . . . . . . . . . . . . . . . . . . . . . . . . . . . . . . . . . . . . . . . . . . ",
". . . . . . . . . . . . . . . . . . . . . . . . . . . . . . . . . . . . . . . . . . . ",
". . . . . . . . . . . . . . . . . . . . . . . . . . . . . . . . . . . . . . . . . . . ",
". . . . . . . . . . . . . . . . . . . + @ # $ % + . . . . . . . . . . . . . . . . . . ",
". . . . . . . . . . . . . . . . & * = - ; > , ' ) ! ~ . . . . . . . . . . . . . . . . ",
". . . . . . . . . . . . . . . { ] ^ / ( ( _ : < [ } | 1 . . . . . . . . . . . . . . . ",
". . . . . . . . . . . . . . 2 3 4 5 6 7 8 8 9 0 a b c > d . . . . . . . . . . . . . . ",
". . . . . . . . . . . . . . e f g < h > i j k l 7 6 m a ; n . . . . . . . . . . . . . ",
". . . . . . . . . . . . . o p ] q r s t u v w [ x y 0 z 7 A . . . . . . . . . . . . . ",
". . . . . . . . . . . . . B C D E F G H I J u 4 K L M a 9 N O . . . . . . . . . . . . ",
". . . . . . . . . . . . . P Q R S , M T > L L U V v T h W 5 X . . . . . . . . . . . . ",
". . . . . . . . . . . . . Y Z S `  .> ..T h +.L  .S @.#.< $.%.. . . . . . . . . . . . ",
". . . . . . . . . . . . . &.*.=.-.g / g ;.x ,  .` } > S , $.>.. . . . . . . . . . . . ",
". . . . . . . . . . . . . ,.'.k 7 5 9 8 6 m y b ).!., x ' W ! . . . . . . . . . . . . ",
". . . . . . . . . . . . . 1 < _ ~.;.N ).W {.$.m y ~. .c j j ].. . . . . . . . . . . . ",
". . . . . . . . . . . . . ^./.(.V H _.:.U ' ~.6 0 : j !.).<.[.. . . . . . . . . . . . ",
". . . . . . . . . . . . . @ $ >.(.| w u }.- ; |.0 m k ).< m 1.. . . . . . . . . . . . ",
". . . . . . . . . . . . . & 2.3.u ) | +.L ' `  .h 0 y ).N 4.] . . . . . . . . . . . . ",
". . . . . . . . . . . . . 5.f _.6.r 7.J / 8.; 9.[ / ( ;.k 0.a.. . . . . . . . . . . . ",
". . . . . . . . . . . . . &.b.c.I 9.v - S b 0.).=.L l : ~._ d.. . . . . . . . . . . . ",
". . . . . . . . . . . . . e.T -.' - =.b.c.K h <.; u <._ N _ d.. . . . . . . . . . . . ",
". . . . . . . . . . . . . 1 =.K @.' S +.u K b., b I / ( ;.<.$ . . . . . . . . . . . . ",
". . . . . . . . . . . . . f.3.b.4 }.'.g.f h.s '.c } ;.m <.m i.. . . . . . . . . . . . ",
". . . . . . . . . . . . . 5.4 K /.>.j.k.[ ' L } 2.4 {.( W 0 C . . . . . . . . . . . . ",
". . . . . . . . . . . . . f.+.}.1.l.j.m.t 9.Z *.#.+.l {.W z n.. . . . . . . . . . . . ",
". . . . . . . . . . . . . @  ._.o.p.Y q.r.A o.:.T #.; 4.a 7 n.. . . . . . . . . . . . ",
". . . . . . . . . . . . . { j s._.b.* t.u.v.E w.x u :.l a m x.. . . . . . . . . . . . ",
". . . . . . . . . . . . . $ N - w.Q D y.z.Q A.'.; =.} c {.8 X . . . . . . . . . . . . ",
". . . . . . . . . . . . . B.C.b F D.d # f.E.2.+.U K u n.F.7 G.. . . . . . . . . . . . ",
". . . . . . . . . . . . . H._ / | I.E.n.J.e.K.L C.C.T &.L.v g.. . . . . . . . . . . . ",
". . . . . . . . . . . . . M.8 l 3.q.p D N.% B E O.s j.P.Q.R.S.. . . . . . . . . . . . ",
". . . . . . . . . . . . . E {.0  .v.u.T.3 U.f.p '.` -./.V.W.H.X.. . . . . . . . . . . ",
". . . . . . . . . . . . . E.!.8 W Y.A.u.Z.3 O.6.L 4.$.M * & `. +. . . . . . . . . . . ",
". . . . . . . . . . . . . % ; _ l }.>..+G.m.4 | j.u y -.Q J.B t.. . . . . . . . . . . ",
". . . . . . . . . . . . . &., N g c j.q s.v 3.I *.F.t *.u.$ ^.P ++. . . . . . . . . . ",
". . . . . . . . . . . . . . t l / |.*.F R - - }.:.2.p.s t t (.@+#+. . . . . . . . . . ",
". . . . . . . . . . . . . . 2 ^ : 8 -.= H v }.w V +.> L R H ..` k.V.. . . . . . . . . ",
". . . . . . . . . . . . . . . . d .+^ H R K #.< ;._ z : } ; 3.K $+M.. . . . . . . . . ",
". . . . . . . . . . . . . . . . . . . ].b.=.6.h.g 4.8 5 5 5 6 k ! w &.. . . . . . . . ",
". . . . . . . . . . . . . . . . . . . %+m.L Z.~ x 8 9 5 8 z 5 9 {.7 G.. . . . . . . . ",
". . . . . . . . . . . . . . . . . . . . K.U  .+.m $.9 9 z 9 5 9 8 9 b.. . . . . . . . ",
". . . . . . . . . . . . . . . . . . . . &+:.= ` $.$.5 9 9 5 9 9 z 7 h ~ . . . . . . . ",
". . . . . . . . . . . . . . . . . . . . . A.*+J 6 9 5 z 9 9 5 9 6 {._.. . . . . . . . ",
". . . . . . . . . . . . . . . . . . . . . =+3.x m z z 5 9 9 5 z ( 7 -+. . . . . . . . ",
". . . . . . . . . . . . . . . . . . . . . . r 0.6 6 $.6 7 9 5 $.{., f.. . . . . . . . ",
". . . . . . . . . . . . . . . . . . . . . . . 2.l 8 m W {.8 5 5 N % . . . . . . . . . ",
". . . . . . . . . . . . . . . . . . . . . . . . K.k 7 9 0 8 m }.# . . . . . . . . . . ",
". . . . . . . . . . . . . . . . . . . . . . . . . & ! I ^ E Y . . . . . . . . . . . . ",
". . . . . . . . . . . . . . . . . . . . . . . . . . . . . . . . . . . . . . . . . . . ",
". . . . . . . . . . . . . . . . . . . . . . . . . . . . . . . . . . . . . . . . . . . ",
". . . . . . . . . . . . . . . . . . . . . . . . . . . . . . . . . . . . . . . . . . . ",
". . . . . . . . . . . . . . . . . . . . . . . . . . . . . . . . . . . . . . . . . . . ",
". . . . . . . . . . . . . . . . . . . . . . . . . . . . . . . . . . . . . . . . . . . ",
". . . . . . . . . . . . . . . . . . . . . . . . . . . . . . . . . . . . . . . . . . . "};
